<?xml version="1.0" encoding="utf-8"?>
<!-- Generator: Adobe Illustrator 22.0.0, SVG Export Plug-In . SVG Version: 6.00 Build 0)  -->
<svg version="1.1" id="Layer_1" xmlns="http://www.w3.org/2000/svg" xmlns:xlink="http://www.w3.org/1999/xlink" x="0px" y="0px"
	 width="111.498px" height="96.263px" viewBox="0 0 111.498 96.263" style="enable-background:new 0 0 111.498 96.263;"
	 xml:space="preserve">
<style type="text/css">
	.st0{fill:#FFFFFF;}
	.st1{fill:#E6E6E6;}
	.st2{fill:none;stroke:#B3B3B3;stroke-width:2;stroke-miterlimit:10;}
	.st3{fill:#FFFFFF;stroke:#999999;stroke-miterlimit:10;}
	.st4{fill:none;stroke:#999999;stroke-miterlimit:10;}
	.st5{fill:#FFFFFF;stroke:#32C2FF;stroke-width:10;stroke-miterlimit:10;}
	.st6{fill:#484848;}
	.st7{fill:#32C2FF;}
	.st8{fill:#999999;}
	.st9{fill:#BF0215;}
	.st10{fill:#00CAFF;}
	.st11{fill:#00B1FF;}
	.st12{fill:none;stroke:#000000;stroke-width:3;stroke-miterlimit:10;}
	.st13{fill:none;stroke:#000000;stroke-width:3;stroke-linecap:round;stroke-linejoin:round;stroke-miterlimit:10;}
</style>
<g>
	<path class="st0" d="M43.819,48.194c7.95,7.199,15.719,14.235,23.49,21.27c4.29,3.883,8.6,7.752,12.87,11.65
		c2.532,2.311,2.501,5.304-0.008,7.193c-2.553,1.922-6.272,1.822-8.77-0.428C57.903,75.722,44.44,63.54,31.007,51.335
		c-2.298-2.087-2.091-4.558,0.463-6.889c6.405-5.847,12.852-11.663,19.289-17.487c6.758-6.115,13.529-12.221,20.283-18.34
		c1.669-1.512,3.653-2.354,6.156-1.891c4.968,0.919,6.506,5.333,2.958,8.559c-9.417,8.559-18.876,17.088-28.316,25.63
		C49.214,43.291,46.597,45.672,43.819,48.194z"/>
</g>
</svg>
