<?xml version="1.0" encoding="utf-8"?>
<!-- Generator: Adobe Illustrator 22.0.0, SVG Export Plug-In . SVG Version: 6.00 Build 0)  -->
<svg version="1.1" id="Layer_1" xmlns="http://www.w3.org/2000/svg" xmlns:xlink="http://www.w3.org/1999/xlink" x="0px" y="0px"
	 width="111.498px" height="96.263px" viewBox="0 0 111.498 96.263" style="enable-background:new 0 0 111.498 96.263;"
	 xml:space="preserve">
<style type="text/css">
	.st0{fill:#FFFFFF;}
	.st1{fill:#E6E6E6;}
	.st2{fill:none;stroke:#B3B3B3;stroke-width:2;stroke-miterlimit:10;}
	.st3{fill:#FFFFFF;stroke:#999999;stroke-miterlimit:10;}
	.st4{fill:none;stroke:#999999;stroke-miterlimit:10;}
	.st5{fill:#FFFFFF;stroke:#32C2FF;stroke-width:10;stroke-miterlimit:10;}
	.st6{fill:#484848;}
	.st7{fill:#32C2FF;}
	.st8{fill:#999999;}
	.st9{fill:#BF0215;}
	.st10{fill:#00CAFF;}
	.st11{fill:#00B1FF;}
	.st12{fill:none;stroke:#000000;stroke-width:3;stroke-miterlimit:10;}
	.st13{fill:none;stroke:#000000;stroke-width:3;stroke-linecap:round;stroke-linejoin:round;stroke-miterlimit:10;}
</style>
<g>
	<path class="st0" d="M75.751,73.893c-7.083,0-14.048,0-21.248,0c0.399,3.841,0.459,7.781-2.689,10.514
		c-1.766,1.533-4.053,2.808-6.31,3.36c-4.405,1.077-9.284-1.982-11.118-6.408c-2.1-5.067-0.449-9.962,4.862-13.882
		c-1.319-3.529-2.661-7.141-4.019-10.748c-4.846-12.879-9.737-25.742-14.501-38.651c-0.722-1.956-1.733-2.647-3.762-2.485
		c-2.164,0.173-4.354,0.043-6.532,0.016c-2.207-0.027-3.403-1.289-3.486-3.373c-0.088-2.202,1.089-3.737,3.361-3.815
		c3.99-0.137,8.008-0.273,11.969,0.088c1.248,0.114,2.778,1.591,3.432,2.837c1.338,2.548,2.291,5.323,3.161,8.08
		c0.498,1.577,1.227,2.064,2.877,2.06c21.785-0.058,43.571,0.063,65.355-0.097c6.82-0.05,8.978,1.101,6.397,8.606
		c-3.121,9.073-5.788,18.305-8.497,27.514c-0.81,2.752-2.387,3.761-5.132,3.751c-13.98-0.052-27.96-0.023-41.94-0.023
		c-0.972,0-1.944,0-2.937,0c0,0.399-0.043,0.588,0.006,0.75c1.363,4.522,1.365,4.504,6.045,4.5
		c11.619-0.009,23.24-0.118,34.857,0.039c8.385,0.113,13.27,8.638,9.31,15.894c-2.42,4.433-7.468,6.491-12.301,5.016
		c-4.805-1.466-8.077-6.361-7.534-11.292C75.456,75.437,75.609,74.738,75.751,73.893z M32.473,28.754
		c1.378,3.758,2.556,7.049,3.817,10.307c0.159,0.412,0.754,0.929,1.152,0.934c5.312,0.062,10.625,0.042,16.1,0.042
		c-0.236-3.442-0.348-6.522-0.735-9.566c-0.081-0.638-1.166-1.628-1.805-1.641C45.021,28.702,39.036,28.754,32.473,28.754z
		 M96.157,28.975c-6.448,0-12.529,0-18.814,0c-0.287,3.756-0.558,7.307-0.846,11.076c5.208,0,10.089,0.055,14.966-0.07
		c0.601-0.015,1.482-0.883,1.714-1.539C94.228,35.464,95.093,32.42,96.157,28.975z M73.725,29.01c-6.008,0-11.652,0-17.411,0
		c0.328,3.826,0.633,7.382,0.934,10.89c5.42,0,10.451,0,15.623,0C73.159,36.234,73.433,32.738,73.725,29.01z M57.574,43.91
		c0.177,2.902,0.228,5.528,0.569,8.115c0.09,0.681,1.057,1.747,1.662,1.776c3.519,0.168,7.051,0.126,10.576,0.027
		c0.515-0.014,1.404-0.669,1.453-1.103c0.331-2.906,0.481-5.832,0.694-8.814C67.398,43.91,62.632,43.91,57.574,43.91z
		 M54.666,53.902c-0.3-3.584-0.567-6.779-0.833-9.957c-5.322,0-10.352,0-15.681,0c1.167,3.078,2.184,5.961,3.386,8.764
		c0.237,0.554,1.176,1.121,1.807,1.14C46.962,53.958,50.584,53.902,54.666,53.902z M76.178,43.923
		c-0.244,3.299-0.48,6.486-0.738,9.972c4.138,0,8.004,0.045,11.867-0.052c0.534-0.013,1.35-0.629,1.524-1.14
		c0.973-2.861,1.789-5.775,2.691-8.78C86.27,43.923,81.331,43.923,76.178,43.923z M89.355,76.872
		c-0.313-1.708-1.307-2.974-3.352-3.059c-1.88-0.079-3.581,1.615-3.402,3.467c0.189,1.949,1.356,3.172,3.336,3.322
		C87.727,80.737,89.401,78.916,89.355,76.872z M40.821,76.757c-0.056,2.189,1.515,3.974,3.309,3.838
		c1.951-0.147,3.166-1.273,3.326-3.277c0.153-1.92-1.412-3.586-3.305-3.497C42.154,73.914,41.041,75.048,40.821,76.757z"/>
</g>
</svg>
