<?xml version="1.0" encoding="utf-8"?>
<!-- Generator: Adobe Illustrator 22.0.0, SVG Export Plug-In . SVG Version: 6.00 Build 0)  -->
<svg version="1.1" id="Layer_1" xmlns="http://www.w3.org/2000/svg" xmlns:xlink="http://www.w3.org/1999/xlink" x="0px" y="0px"
	 width="111.498px" height="96.263px" viewBox="0 0 111.498 96.263" style="enable-background:new 0 0 111.498 96.263;"
	 xml:space="preserve">
<style type="text/css">
	.st0{fill:#FFFFFF;}
	.st1{fill:#E6E6E6;}
	.st2{fill:none;stroke:#B3B3B3;stroke-width:2;stroke-miterlimit:10;}
	.st3{fill:#FFFFFF;stroke:#999999;stroke-miterlimit:10;}
	.st4{fill:none;stroke:#999999;stroke-miterlimit:10;}
	.st5{fill:#FFFFFF;stroke:#32C2FF;stroke-width:10;stroke-miterlimit:10;}
	.st6{fill:#484848;}
	.st7{fill:#32C2FF;}
	.st8{fill:#999999;}
	.st9{fill:#BF0215;}
	.st10{fill:#00CAFF;}
	.st11{fill:#00B1FF;}
	.st12{fill:none;stroke:#000000;stroke-width:3;stroke-miterlimit:10;}
	.st13{fill:none;stroke:#000000;stroke-width:3;stroke-linecap:round;stroke-linejoin:round;stroke-miterlimit:10;}
</style>
<g>
	<g>
		<path class="st7" d="M43.061,42.518v-2.246H22.85c-1.234-0.001-2.346-0.5-3.17-1.321c-0.821-0.824-1.321-1.937-1.322-3.17v-20.21
			c0.001-1.233,0.5-2.346,1.322-3.17c0.824-0.821,1.936-1.321,3.17-1.321h20.21c1.233,0.001,2.345,0.5,3.17,1.321
			c0.821,0.824,1.321,1.937,1.322,3.17v20.21c-0.001,1.233-0.5,2.346-1.322,3.17c-0.824,0.821-1.936,1.321-3.17,1.321V42.518v2.246
			c2.471,0.001,4.728-1.016,6.346-2.637c1.621-1.618,2.637-3.874,2.636-6.346v-20.21c0.001-2.472-1.016-4.728-2.636-6.346
			c-1.618-1.621-3.874-2.637-6.346-2.637H22.85c-2.472-0.001-4.728,1.016-6.346,2.637c-1.621,1.618-2.637,3.874-2.636,6.346v20.21
			c-0.001,2.472,1.016,4.728,2.636,6.346c1.618,1.621,3.874,2.637,6.346,2.637h20.21V42.518z"/>
		<path class="st7" d="M88.534,42.518v-2.246h-20.21c-1.234-0.001-2.346-0.5-3.17-1.321c-0.821-0.824-1.321-1.937-1.322-3.17v-20.21
			c0.001-1.233,0.5-2.346,1.322-3.17c0.824-0.821,1.936-1.321,3.17-1.321h20.21c1.233,0.001,2.345,0.5,3.17,1.321
			c0.821,0.824,1.321,1.937,1.322,3.17v20.21c-0.001,1.233-0.5,2.346-1.322,3.17c-0.824,0.821-1.936,1.321-3.17,1.321V42.518v2.246
			c2.471,0.001,4.728-1.016,6.346-2.637c1.621-1.618,2.637-3.874,2.636-6.346v-20.21c0.001-2.472-1.016-4.728-2.636-6.346
			c-1.618-1.621-3.874-2.637-6.346-2.637h-20.21c-2.472-0.001-4.728,1.016-6.346,2.637c-1.621,1.618-2.637,3.874-2.636,6.346v20.21
			c-0.001,2.472,1.016,4.728,2.636,6.346c1.618,1.621,3.874,2.637,6.346,2.637h20.21V42.518z"/>
		<path class="st7" d="M43.061,87.43v-2.246H22.85c-1.234-0.001-2.346-0.5-3.17-1.321c-0.821-0.824-1.321-1.937-1.322-3.17v-20.21
			c0.001-1.233,0.5-2.346,1.322-3.17c0.824-0.821,1.936-1.321,3.17-1.321h20.21c1.233,0.001,2.345,0.5,3.17,1.321
			c0.821,0.824,1.321,1.937,1.322,3.17v20.21c-0.001,1.233-0.5,2.346-1.322,3.17c-0.824,0.821-1.936,1.321-3.17,1.321V87.43v2.246
			c2.471,0.001,4.728-1.016,6.346-2.637c1.621-1.618,2.637-3.874,2.636-6.346v-20.21c0.001-2.472-1.016-4.728-2.636-6.346
			c-1.618-1.621-3.874-2.637-6.346-2.637H22.85c-2.472-0.001-4.728,1.016-6.346,2.637c-1.621,1.618-2.637,3.874-2.636,6.346v20.21
			c-0.001,2.472,1.016,4.728,2.636,6.346c1.618,1.621,3.874,2.637,6.346,2.637h20.21V87.43z"/>
		<path class="st7" d="M88.534,87.43v-2.246h-20.21c-1.234-0.001-2.346-0.5-3.17-1.321c-0.821-0.824-1.321-1.937-1.322-3.17v-20.21
			c0.001-1.233,0.5-2.346,1.322-3.17c0.824-0.821,1.936-1.321,3.17-1.321h20.21c1.233,0.001,2.345,0.5,3.17,1.321
			c0.821,0.824,1.321,1.937,1.322,3.17v20.21c-0.001,1.233-0.5,2.346-1.322,3.17c-0.824,0.821-1.936,1.321-3.17,1.321V87.43v2.246
			c2.471,0.001,4.728-1.016,6.346-2.637c1.621-1.618,2.637-3.874,2.636-6.346v-20.21c0.001-2.472-1.016-4.728-2.636-6.346
			c-1.618-1.621-3.874-2.637-6.346-2.637h-20.21c-2.472-0.001-4.728,1.016-6.346,2.637c-1.621,1.618-2.637,3.874-2.636,6.346v20.21
			c-0.001,2.472,1.016,4.728,2.636,6.346c1.618,1.621,3.874,2.637,6.346,2.637h20.21V87.43z"/>
	</g>
</g>
</svg>
