<?xml version="1.0" encoding="utf-8"?>
<!-- Generator: Adobe Illustrator 22.0.0, SVG Export Plug-In . SVG Version: 6.00 Build 0)  -->
<svg version="1.1" id="Layer_1" xmlns="http://www.w3.org/2000/svg" xmlns:xlink="http://www.w3.org/1999/xlink" x="0px" y="0px"
	 width="139.395px" height="135.475px" viewBox="0 0 139.395 135.475" style="enable-background:new 0 0 139.395 135.475;"
	 xml:space="preserve">
<style type="text/css">
	.st0{fill:#FFFFFF;}
	.st1{fill:#E6E6E6;}
	.st2{fill:none;stroke:#B3B3B3;stroke-width:2;stroke-miterlimit:10;}
	.st3{fill:#FFFFFF;stroke:#999999;stroke-miterlimit:10;}
	.st4{fill:none;stroke:#999999;stroke-miterlimit:10;}
	.st5{fill:#FFFFFF;stroke:#32C2FF;stroke-width:10;stroke-miterlimit:10;}
	.st6{fill:#484848;}
	.st7{fill:#32C2FF;}
	.st8{fill:#999999;}
	.st9{fill:#BF0215;}
	.st10{fill:#00CAFF;}
	.st11{fill:#00B1FF;}
	.st12{fill:none;stroke:#000000;stroke-width:3;stroke-miterlimit:10;}
	.st13{fill:none;stroke:#000000;stroke-width:3;stroke-linecap:round;stroke-linejoin:round;stroke-miterlimit:10;}
</style>
<g>
	<path class="st6" d="M40.281,91.387c-6.738,0-12.931,0.029-19.124-0.007C11.086,91.322,5.132,85.47,5.1,75.463
		C5.046,58.695,5.041,41.926,5.103,25.158c0.036-9.794,6.046-15.756,15.842-15.77C45.569,9.353,70.195,9.349,94.82,9.391
		c10.051,0.017,15.824,5.882,15.845,16.018c0.034,16.651,0.035,33.303,0,49.954c-0.021,10.29-5.812,15.985-16.211,16.019
		c-7.622,0.025-15.25-0.159-22.863,0.106c-2.264,0.079-4.816,0.889-6.669,2.177c-6.348,4.413-12.392,9.261-18.683,13.76
		c-1.157,0.827-3.161,1.411-4.337,0.962c-0.898-0.343-1.486-2.477-1.55-3.845C40.157,100.342,40.281,96.127,40.281,91.387z
		 M46.261,100.197c6.206-4.655,11.559-8.83,17.106-12.728c1.503-1.056,3.581-1.765,5.412-1.804
		c8.672-0.185,17.351-0.061,26.027-0.09c6.539-0.022,10.041-3.459,10.052-9.928c0.029-16.884,0.029-33.768-0.001-50.651
		c-0.011-6.296-3.507-9.789-9.805-9.795c-24.622-0.024-49.244-0.023-73.867-0.002c-6.818,0.006-10.093,3.292-10.107,10.182
		c-0.035,16.767-0.037,33.533,0.002,50.3c0.015,6.587,3.379,9.865,10.027,9.895c6.918,0.031,13.837,0.093,20.752-0.03
		c3.205-0.057,4.483,1.35,4.416,4.422C46.207,93.093,46.261,96.222,46.261,100.197z"/>
	<path class="st6" d="M93.075,117.756c0-4.044,0.036-7.205-0.011-10.365c-0.043-2.902,1.188-4.285,4.225-4.242
		c6.917,0.098,13.836,0.049,20.755,0.025c6.882-0.023,10.2-3.258,10.213-10.07c0.033-16.768,0.031-33.537,0-50.305
		c-0.011-6.161-2.396-8.74-8.474-10.128c-1.192-0.272-2.792-1.893-2.916-3.033c-0.244-2.244,1.69-2.674,3.652-2.625
		c7.1,0.177,13.469,6.207,13.595,14.009c0.288,17.936,0.305,35.883,0.006,53.818c-0.14,8.425-6.432,13.99-14.913,14.12
		c-6.541,0.1-13.085,0.02-20.15,0.02c0,4.499,0.136,8.679-0.073,12.842c-0.074,1.481-0.666,3.837-1.589,4.158
		c-1.274,0.442-3.371-0.271-4.621-1.174c-7.221-5.215-14.3-10.627-21.417-15.984c-1.601-1.205-2.404-2.726-0.968-4.495
		c1.415-1.742,3.06-1.306,4.631-0.064c0.735,0.582,1.495,1.132,2.247,1.693C82.307,109.718,87.348,113.481,93.075,117.756z"/>
	<path class="st6" d="M28.681,50.521c-0.062-16.25,12.917-29.408,29.11-29.512c16.075-0.103,29.413,13.128,29.467,29.232
		C87.313,66.4,74.244,79.617,58.074,79.757C41.979,79.895,28.743,66.73,28.681,50.521z M61.083,27.93c0,7.042,0,13.158,0,19.373
		c2.859,0,5.487,0,8.402,0C68.714,40.07,67.338,33.41,61.083,27.93z M61.086,53.409c0,6.432,0,12.538,0,19.558
		c6.132-5.696,7.757-12.256,8.344-19.558C66.494,53.409,63.96,53.409,61.086,53.409z M54.861,27.698
		c-6.216,5.713-7.76,12.32-8.463,19.51c2.976,0,5.682,0,8.463,0C54.861,40.854,54.861,34.792,54.861,27.698z M46.65,53.429
		c-0.23,7.918,3.703,16.792,8.088,18.577c0-6.133,0-12.278,0-18.577C51.997,53.429,49.468,53.429,46.65,53.429z M72.125,31.734
		c1.343,5.552,2.558,10.575,3.776,15.6c1.605,0,3.209,0,5.106,0C80.154,40.95,77.291,36.011,72.125,31.734z M75.906,53.415
		c-1.273,5.259-2.467,10.194-3.777,15.604c5.119-4.2,8.022-9.148,8.869-15.604C79.051,53.415,77.445,53.415,75.906,53.415z
		 M39.962,47.329c1.267-5.219,2.485-10.237,3.793-15.624c-5.016,4.214-8.151,9.06-8.792,15.624
		C36.958,47.329,38.548,47.329,39.962,47.329z M34.915,53.444c0.782,6.536,3.792,11.434,8.839,15.596
		c-1.318-5.455-2.534-10.492-3.767-15.596C38.449,53.444,36.847,53.444,34.915,53.444z"/>
</g>
</svg>
