<?xml version="1.0" encoding="utf-8"?>
<!-- Generator: Adobe Illustrator 22.0.0, SVG Export Plug-In . SVG Version: 6.00 Build 0)  -->
<svg version="1.1" id="Layer_1" xmlns="http://www.w3.org/2000/svg" xmlns:xlink="http://www.w3.org/1999/xlink" x="0px" y="0px"
	 width="139.395px" height="135.475px" viewBox="0 0 139.395 135.475" style="enable-background:new 0 0 139.395 135.475;"
	 xml:space="preserve">
<style type="text/css">
	.st0{fill:#FFFFFF;}
	.st1{fill:#E6E6E6;}
	.st2{fill:none;stroke:#B3B3B3;stroke-width:2;stroke-miterlimit:10;}
	.st3{fill:#FFFFFF;stroke:#999999;stroke-miterlimit:10;}
	.st4{fill:none;stroke:#999999;stroke-miterlimit:10;}
	.st5{fill:#FFFFFF;stroke:#32C2FF;stroke-width:10;stroke-miterlimit:10;}
	.st6{fill:#484848;}
	.st7{fill:#32C2FF;}
	.st8{fill:#999999;}
	.st9{fill:#BF0215;}
	.st10{fill:#00CAFF;}
	.st11{fill:#00B1FF;}
	.st12{fill:none;stroke:#000000;stroke-width:3;stroke-miterlimit:10;}
	.st13{fill:none;stroke:#000000;stroke-width:3;stroke-linecap:round;stroke-linejoin:round;stroke-miterlimit:10;}
</style>
<g>
	<path class="st6" d="M40.891,56.959c10.336,14.583,22.63,26.836,37.321,37.324c1.192-1.708,2.247-3.255,3.338-4.777
		c4.845-6.756,11.602-8.122,18.455-3.557c5.385,3.586,10.701,7.283,15.931,11.091c5.429,3.954,6.915,9.786,4.171,15.918
		c-4.163,9.304-11.956,13.005-21.588,13.472c-7.544,0.366-14.849-1.258-21.685-4.292c-31.007-13.762-53.279-36.06-65.36-68.006
		c-2.928-7.743-3.787-15.866-1.85-24.036c1.643-6.931,5.775-12.011,12.282-15.031c5.991-2.78,12.09-1.38,16.02,3.939
		c4.058,5.491,7.976,11.096,11.725,16.802c3.83,5.83,2.339,12.981-3.319,17.205C44.616,54.293,42.867,55.527,40.891,56.959z
		 M96.656,121.496c7.948-0.067,14.715-2.328,18.639-9.865c2.237-4.298,1.381-7.926-2.521-10.713
		c-5.17-3.693-10.37-7.344-15.629-10.908c-4.149-2.812-8.28-2.002-11.287,2.085c-1.492,2.028-2.926,4.099-4.334,6.186
		c-1.349,2-2.915,2.205-4.877,0.87C60.493,88.159,46.931,74.589,35.932,58.436c-1.525-2.239-0.937-3.685,1.153-5.041
		c2.211-1.434,4.392-2.934,6.46-4.564c3.618-2.852,4.338-6.66,1.793-10.478c-3.723-5.586-7.576-11.091-11.523-16.521
		c-2.424-3.335-5.822-4.101-9.564-2.385c-4.846,2.222-8.084,5.904-9.559,11.053c-2.25,7.854-1.002,15.55,1.804,22.912
		c10.367,27.196,29.281,46.862,54.533,60.7C78.977,118.466,87.484,121.28,96.656,121.496z"/>
	<path class="st6" d="M97.909,9.047c9.479,0,18.959,0.096,28.436-0.053c3.228-0.051,4.51,0.983,4.465,4.328
		c-0.143,10.677-0.132,21.358-0.004,32.035c0.038,3.151-1.114,4.197-4.225,4.154c-10.077-0.139-20.158,0.052-30.234-0.121
		c-2.478-0.043-3.654,0.797-4.535,2.968c-1.259,3.102-2.717,6.135-4.287,9.092c-0.501,0.944-1.712,2.244-2.449,2.154
		c-1.021-0.124-2.236-1.226-2.778-2.228c-1.649-3.05-3.12-6.21-4.451-9.414c-0.81-1.951-1.97-2.581-4.079-2.555
		c-9.372,0.118-8.727,1.102-8.714-8.623c0.012-9.119,0.089-18.239-0.045-27.356c-0.049-3.29,1.221-4.469,4.465-4.426
		C78.95,9.127,88.43,9.047,97.909,9.047z M125.644,14.362c-18.592,0-36.962,0-55.352,0c0,10.08,0,19.869,0,30.032
		c1.809,0,3.471,0.157,5.092-0.033c3.229-0.378,5.172,0.856,6.255,3.963c0.785,2.252,2.037,4.341,3.312,6.983
		c1.404-2.944,2.68-5.256,3.623-7.696c0.979-2.53,2.634-3.3,5.262-3.265c9.353,0.123,18.708,0.047,28.062,0.047
		c1.256,0,2.511,0,3.746,0C125.644,34.026,125.644,24.238,125.644,14.362z"/>
	<path class="st6" d="M119.221,26.848H77.1c-1.617,0-2.94-1.323-2.94-2.94v0c0-1.617,1.323-2.94,2.94-2.94h42.121
		c1.617,0,2.94,1.323,2.94,2.94v0C122.161,25.525,120.838,26.848,119.221,26.848z"/>
	<path class="st6" d="M119.221,36.449H77.1c-1.617,0-2.94-1.323-2.94-2.94v0c0-1.617,1.323-2.94,2.94-2.94h42.121
		c1.617,0,2.94,1.323,2.94,2.94v0C122.161,35.125,120.838,36.449,119.221,36.449z"/>
</g>
</svg>
