<?xml version="1.0" encoding="utf-8"?>
<!-- Generator: Adobe Illustrator 22.0.0, SVG Export Plug-In . SVG Version: 6.00 Build 0)  -->
<svg version="1.1" id="Layer_1" xmlns="http://www.w3.org/2000/svg" xmlns:xlink="http://www.w3.org/1999/xlink" x="0px" y="0px"
	 width="22.352px" height="27.512px" viewBox="0 0 22.352 27.512" style="enable-background:new 0 0 22.352 27.512;"
	 xml:space="preserve">
<style type="text/css">
	.st0{fill:#E6E6E6;}
	.st1{fill:#FFFFFF;}
	.st2{fill:#32C2FF;}
	.st3{fill:#484848;}
	.st4{fill:#FFFFFF;stroke:#999999;stroke-miterlimit:10;}
	.st5{fill:#97A7B3;}
	.st6{fill:url(#SVGID_1_);}
	.st7{fill:url(#SVGID_2_);}
	.st8{fill:#BF0215;}
	.st9{fill:url(#SVGID_3_);}
	.st10{fill:url(#SVGID_4_);}
	.st11{fill:url(#SVGID_5_);}
	.st12{fill:#D0D8D9;}
	.st13{fill:#FCC083;}
	.st14{opacity:0.34;fill:#E8974F;}
	.st15{fill:#EDE7C4;}
	.st16{fill:#44657E;}
	.st17{fill:#F7931E;}
	.st18{fill:#845B56;}
	.st19{fill:#999345;}
	.st20{opacity:0.75;fill:#EBD5B8;}
	.st21{fill:#CFD6BD;}
	.st22{fill:#FF0000;}
	.st23{fill:#F9F9F9;}
	.st24{fill:#F3F3F3;}
	.st25{fill:none;stroke:#FFFFFF;stroke-miterlimit:10;}
	.st26{fill:#FFFFFF;stroke:#FFFFFF;stroke-miterlimit:10;}
	.st27{fill:url(#SVGID_6_);}
	.st28{fill:url(#SVGID_7_);}
	.st29{fill:none;stroke:#484848;stroke-width:0.5;stroke-miterlimit:10;}
	.st30{fill:url(#SVGID_20_);}
	.st31{fill:url(#SVGID_21_);}
	.st32{fill:none;stroke:#000000;stroke-miterlimit:10;}
	.st33{fill:none;stroke:#999999;stroke-miterlimit:10;}
	.st34{fill:#999999;}
	.st35{fill:#FFFFFF;stroke:#000000;stroke-miterlimit:10;}
	.st36{fill:#494949;}
	.st37{fill:none;stroke:#CCCCCC;stroke-miterlimit:10;}
</style>
<g>
	<path d="M3.411,9.525c-0.535-0.03-0.937-0.256-1.21-0.697c-0.13-0.21-0.199-0.44-0.199-0.688C2.001,7.649,1.997,7.158,2.003,6.666
		c0.009-0.729,0.605-1.343,1.333-1.373C3.62,5.282,3.905,5.289,4.189,5.289c1.102,0,2.204,0,3.307,0c0.045,0,0.091,0,0.146,0
		c0.002-0.052,0.006-0.092,0.006-0.133c0-0.419-0.001-0.837,0.001-1.256C7.65,3.085,8.27,2.463,9.084,2.463
		c1.394-0.001,2.788-0.001,4.182,0c0.814,0.001,1.434,0.622,1.437,1.438c0.002,0.457,0,0.913,0,1.387c0.056,0,0.105,0,0.153,0
		c1.348,0,2.696,0,4.044,0c0.742,0,1.318,0.487,1.437,1.217c0.011,0.068,0.012,0.138,0.013,0.207c0.001,0.457,0.002,0.914,0,1.371
		c-0.003,0.784-0.562,1.38-1.343,1.436c-0.018,0.001-0.037,0.004-0.067,0.008c0,0.054,0,0.103,0,0.152
		c0,4.167,0.007,8.334-0.004,12.501c-0.003,1.242-0.605,2.128-1.731,2.649c-0.327,0.152-0.679,0.22-1.04,0.22
		c-2.804,0.002-5.607,0.001-8.411,0.002c-0.53,0-1.06,0.004-1.59-0.003c-1.399-0.018-2.607-1.138-2.736-2.533
		c-0.012-0.126-0.018-0.253-0.018-0.379C3.411,17.982,3.411,13.83,3.411,9.679C3.411,9.63,3.411,9.581,3.411,9.525z M4.821,9.527
		c0,0.048,0,0.089,0,0.13c0,4.171,0,8.342,0.001,12.513c0,0.111,0.008,0.224,0.031,0.332c0.143,0.68,0.716,1.136,1.426,1.136
		c3.257,0.001,6.514,0,9.771,0c0.865,0,1.479-0.614,1.479-1.481c0.001-4.167,0-8.334,0-12.502c0-0.041-0.003-0.082-0.005-0.128
		C13.287,9.527,9.061,9.527,4.821,9.527z M11.176,6.7c-2.315,0-4.631,0-6.946,0c-0.058,0-0.115-0.001-0.173,0.003
		c-0.39,0.025-0.698,0.412-0.634,0.797c0.061,0.371,0.346,0.609,0.736,0.609c4.681,0,9.362,0,14.042,0c0.027,0,0.054,0,0.081-0.002
		c0.421-0.027,0.728-0.426,0.644-0.839C18.854,6.92,18.573,6.7,18.191,6.7C15.853,6.7,13.514,6.7,11.176,6.7z M13.286,5.279
		c0-0.268,0.021-0.53-0.005-0.787c-0.036-0.362-0.327-0.614-0.689-0.616c-0.944-0.005-1.888-0.005-2.832,0
		C9.39,3.878,9.092,4.15,9.064,4.514C9.045,4.765,9.061,5.019,9.061,5.279C10.471,5.279,11.877,5.279,13.286,5.279z"/>
	<path d="M10.47,17.279c0-1.39,0-2.779,0-4.169c0-0.384,0.203-0.66,0.543-0.745c0.394-0.099,0.801,0.174,0.857,0.576
		c0.008,0.057,0.012,0.115,0.012,0.172c0.001,2.779,0.001,5.559,0,8.338c0,0.379-0.188,0.648-0.515,0.743
		c-0.405,0.118-0.829-0.156-0.886-0.574c-0.009-0.068-0.012-0.138-0.012-0.207C10.47,20.036,10.47,18.658,10.47,17.279z"/>
	<path d="M8.354,17.292c0,1.374,0,2.749-0.001,4.123c0,0.092-0.002,0.186-0.024,0.274c-0.085,0.346-0.403,0.563-0.761,0.527
		c-0.341-0.034-0.601-0.315-0.625-0.674c-0.002-0.031-0.002-0.061-0.002-0.092c0-2.78,0-5.559,0-8.339
		c0-0.388,0.207-0.667,0.553-0.749c0.398-0.095,0.807,0.192,0.851,0.6c0.007,0.069,0.008,0.138,0.009,0.207
		C8.354,14.544,8.354,15.918,8.354,17.292z"/>
	<path d="M13.999,17.283c0-1.386,0.001-2.772-0.001-4.158c0-0.194,0.037-0.373,0.165-0.525c0.189-0.224,0.487-0.31,0.76-0.22
		c0.279,0.092,0.467,0.343,0.486,0.65c0.002,0.031,0.002,0.061,0.002,0.092c0,2.776,0,5.551,0,8.327
		c0,0.383-0.192,0.657-0.523,0.749c-0.41,0.115-0.838-0.174-0.881-0.596C14,21.533,14,21.463,14,21.394
		C13.999,20.024,13.999,18.653,13.999,17.283z"/>
</g>
</svg>
