<?xml version="1.0" encoding="utf-8"?>
<!-- Generator: Adobe Illustrator 22.0.0, SVG Export Plug-In . SVG Version: 6.00 Build 0)  -->
<svg version="1.1" id="Layer_1" xmlns="http://www.w3.org/2000/svg" xmlns:xlink="http://www.w3.org/1999/xlink" x="0px" y="0px"
	 width="111.498px" height="96.263px" viewBox="0 0 111.498 96.263" style="enable-background:new 0 0 111.498 96.263;"
	 xml:space="preserve">
<style type="text/css">
	.st0{fill:#FFFFFF;stroke:#999999;stroke-miterlimit:10;}
	.st1{fill:#32C2FF;stroke:#32C2FF;stroke-miterlimit:10;}
	.st2{fill:#32C2FF;}
	.st3{fill:none;stroke:#E6E6E6;stroke-miterlimit:10;}
	.st4{fill:#FFFFFF;stroke:#32C2FF;stroke-width:10;stroke-miterlimit:10;}
	.st5{fill:#484848;}
	.st6{opacity:0.91;fill:url(#SVGID_1_);}
	.st7{fill:url(#SVGID_2_);}
	.st8{fill:none;stroke:#FFFFFF;stroke-width:4;stroke-miterlimit:10;}
	.st9{fill:#FFFFFF;}
	.st10{fill:#FFFFFF;stroke:#B3B3B3;stroke-width:2;stroke-miterlimit:10;}
	.st11{fill:#999999;}
</style>
<g>
	<path class="st2" d="M55.731,14.268c12.248,0.001,24.496-0.006,36.744,0.004c4.377,0.004,6.341,1.93,6.345,6.301
		c0.017,18.502,0.016,37.005-0.002,55.507c-0.004,3.863-2.075,5.908-5.937,5.91c-24.757,0.01-49.513,0.009-74.27,0.001
		c-3.845-0.001-5.923-2.034-5.927-5.911c-0.023-18.567-0.022-37.135-0.001-55.703c0.005-4.19,1.96-6.104,6.109-6.107
		C31.104,14.262,43.418,14.268,55.731,14.268z M21.572,19.858c11.517,12.873,22.8,25.486,34.171,38.196
		c11.442-12.787,22.698-25.367,34.178-38.196C67.024,19.858,44.525,19.858,21.572,19.858z M21.795,76.369c22.796,0,45.198,0,67.91,0
		c-7.259-8.117-14.313-16.006-21.491-24.033c-0.752,0.826-1.407,1.535-2.052,2.254c-2.435,2.712-4.849,5.442-7.304,8.135
		c-2.047,2.244-4.14,2.247-6.172,0.042c-1.279-1.388-2.519-2.812-3.784-4.213c-1.851-2.049-3.709-4.09-5.641-6.219
		C36.071,60.385,29.052,68.243,21.795,76.369z M93.259,24.174c-7.331,8.205-14.357,16.068-21.411,23.963
		c7.136,7.982,14.127,15.803,21.411,23.95C93.259,55.93,93.259,40.301,93.259,24.174z M39.64,48.126
		c-7.081-7.922-14.094-15.769-21.384-23.925c0,16.182,0,31.805,0,47.886C25.558,63.905,32.56,56.059,39.64,48.126z"/>
</g>
</svg>
