<?xml version="1.0" encoding="utf-8"?>
<!-- Generator: Adobe Illustrator 22.0.0, SVG Export Plug-In . SVG Version: 6.00 Build 0)  -->
<svg version="1.1" id="Layer_1" xmlns="http://www.w3.org/2000/svg" xmlns:xlink="http://www.w3.org/1999/xlink" x="0px" y="0px"
	 width="111.498px" height="96.263px" viewBox="0 0 111.498 96.263" style="enable-background:new 0 0 111.498 96.263;"
	 xml:space="preserve">
<style type="text/css">
	.st0{fill:#FFFFFF;}
	.st1{fill:#E6E6E6;}
	.st2{fill:none;stroke:#B3B3B3;stroke-width:2;stroke-miterlimit:10;}
	.st3{fill:#FFFFFF;stroke:#999999;stroke-miterlimit:10;}
	.st4{fill:none;stroke:#999999;stroke-miterlimit:10;}
	.st5{fill:#FFFFFF;stroke:#32C2FF;stroke-width:10;stroke-miterlimit:10;}
	.st6{fill:#484848;}
	.st7{fill:#32C2FF;}
	.st8{fill:#999999;}
	.st9{fill:#BF0215;}
	.st10{fill:#00CAFF;}
	.st11{fill:#00B1FF;}
	.st12{fill:none;stroke:#000000;stroke-width:3;stroke-miterlimit:10;}
	.st13{fill:none;stroke:#000000;stroke-width:3;stroke-linecap:round;stroke-linejoin:round;stroke-miterlimit:10;}
</style>
<path class="st7" d="M99.934,45.171c-9.316-9.243-18.633-18.485-27.971-27.705c-4.642-4.584-9.258-9.199-14.028-13.647
	c-2.144-1.999-2.821-1.797-4.923,0.286C43.065,13.968,33.107,23.821,23.175,33.7c-4.476,4.452-8.899,8.956-13.346,13.437
	c0,0.544,0,1.088,0,1.633c1.861,2.247,3.071,2.321,5.148,0.182c0.697-0.718,1.198-1.626,1.789-2.447
	c0.257,0.163,0.514,0.325,0.771,0.488c0,0.706,0,1.412,0,2.118c0,12.783-0.003,25.567,0.002,38.35
	c0.002,4.719,1.642,6.371,6.364,6.372c21.215,0.007,42.43,0.007,63.645,0c4.832-0.001,6.411-1.619,6.413-6.525
	c0.003-13.393,0.001-26.786,0.001-40.735c1.043,0.982,1.793,1.675,2.528,2.383c2.161,2.082,3.283,2.044,5.179-0.186
	c0-0.544,0-1.089,0-1.633C101.093,46.48,100.554,45.785,99.934,45.171z M63.477,88.702c-5.117,0-10.238,0-15.359,0
	c0-8.959,0-17.834,0-26.751c5.193,0,10.179,0,15.359,0C63.477,70.93,63.477,79.798,63.477,88.702z M88.98,87.619
	c0,0.325-0.056,0.65-0.095,1.083c-6.8,0-13.59,0-20.378,0c0.007-8.614,0.016-17.229-0.002-25.843
	c-0.009-4.348-1.848-6.155-6.258-6.181c-4.286-0.025-8.572-0.02-12.858-0.002c-4.641,0.02-6.361,1.771-6.366,6.476
	c-0.008,8.516-0.003,17.033-0.002,25.549c-6.791,0-13.588,0-20.405,0c-0.032-0.687-0.09-1.343-0.09-1.999
	c-0.005-14.48-0.018-28.96,0.031-43.441c0.003-0.856,0.263-1.961,0.828-2.527C33.957,30.157,44.592,19.643,55.217,9.119
	c0.091-0.09,0.231-0.132,0.842-0.691c0.59,0.816,1.078,1.735,1.784,2.434c9.952,9.852,19.944,19.664,29.883,29.528
	c0.605,0.601,1.203,1.564,1.207,2.361C89.004,57.707,88.985,72.663,88.98,87.619z"/>
</svg>
