<?xml version="1.0" encoding="utf-8"?>
<!-- Generator: Adobe Illustrator 22.0.0, SVG Export Plug-In . SVG Version: 6.00 Build 0)  -->
<svg version="1.1" id="Layer_1" xmlns="http://www.w3.org/2000/svg" xmlns:xlink="http://www.w3.org/1999/xlink" x="0px" y="0px"
	 width="111.498px" height="96.263px" viewBox="0 0 111.498 96.263" style="enable-background:new 0 0 111.498 96.263;"
	 xml:space="preserve">
<style type="text/css">
	.st0{fill:#FFFFFF;stroke:#999999;stroke-miterlimit:10;}
	.st1{fill:#32C2FF;stroke:#32C2FF;stroke-miterlimit:10;}
	.st2{fill:#32C2FF;}
	.st3{fill:none;stroke:#E6E6E6;stroke-miterlimit:10;}
	.st4{fill:#FFFFFF;stroke:#32C2FF;stroke-width:10;stroke-miterlimit:10;}
	.st5{fill:#484848;}
	.st6{opacity:0.91;fill:url(#SVGID_1_);}
	.st7{fill:url(#SVGID_2_);}
	.st8{fill:none;stroke:#FFFFFF;stroke-width:4;stroke-miterlimit:10;}
	.st9{fill:#FFFFFF;}
	.st10{fill:#FFFFFF;stroke:#B3B3B3;stroke-width:2;stroke-miterlimit:10;}
	.st11{fill:#999999;}
</style>
<g>
	<g>
		<path class="st2" d="M55.93,93.522C43.347,78.301,31.812,63.273,25.427,45.037C18.905,26.413,30.925,7.49,48.856,3.501
			C69.147-1.013,88.968,15.183,87.82,35.964c-0.266,4.813-1.827,9.748-3.707,14.244C77.687,65.575,67.902,78.852,57.32,91.576
			C56.908,92.072,56.566,92.627,55.93,93.522z M55.602,85.432c8.454-8.868,21.15-28.987,25.201-39.78
			c1.762-4.695,2.782-9.503,2.011-14.529C80.336,14.97,65.031,4.611,49.308,8.406C33.8,12.15,24.945,28.061,30.077,43.443
			C35.36,59.275,45.506,72.206,55.602,85.432z"/>
		<path class="st2" d="M68.16,35.097c-0.084,6.864-5.703,12.295-12.611,12.19c-6.746-0.102-12.165-5.623-12.156-12.382
			c0.01-6.851,5.638-12.42,12.484-12.352C62.751,22.62,68.244,28.23,68.16,35.097z M63.188,35.079
			c0.066-4.284-3.088-7.558-7.325-7.604c-4.115-0.045-7.374,3.069-7.498,7.163c-0.129,4.294,2.967,7.605,7.193,7.693
			C59.876,42.421,63.122,39.336,63.188,35.079z"/>
	</g>
</g>
</svg>
