<?xml version="1.0" encoding="utf-8"?>
<!-- Generator: Adobe Illustrator 22.0.0, SVG Export Plug-In . SVG Version: 6.00 Build 0)  -->
<svg version="1.1" id="Layer_1" xmlns="http://www.w3.org/2000/svg" xmlns:xlink="http://www.w3.org/1999/xlink" x="0px" y="0px"
	 width="111.498px" height="96.263px" viewBox="0 0 111.498 96.263" style="enable-background:new 0 0 111.498 96.263;"
	 xml:space="preserve">
<style type="text/css">
	.st0{fill:#FFFFFF;stroke:#999999;stroke-miterlimit:10;}
	.st1{fill:#32C2FF;stroke:#32C2FF;stroke-miterlimit:10;}
	.st2{fill:#32C2FF;}
	.st3{fill:none;stroke:#E6E6E6;stroke-miterlimit:10;}
	.st4{fill:#FFFFFF;stroke:#32C2FF;stroke-width:10;stroke-miterlimit:10;}
	.st5{fill:#484848;}
	.st6{opacity:0.91;fill:url(#SVGID_1_);}
	.st7{fill:url(#SVGID_2_);}
	.st8{fill:none;stroke:#FFFFFF;stroke-width:4;stroke-miterlimit:10;}
	.st9{fill:#FFFFFF;}
	.st10{fill:#FFFFFF;stroke:#B3B3B3;stroke-width:2;stroke-miterlimit:10;}
	.st11{fill:#999999;}
</style>
<g>
	<polygon class="st5" points="88.227,81.041 88.226,81.043 88.226,81.043 	"/>
	<polygon class="st5" points="85.238,83.421 85.236,83.421 85.234,83.422 	"/>
	<polygon class="st5" points="44.171,55.787 44.173,55.786 44.174,55.786 	"/>
	<polygon class="st5" points="25.157,82.883 25.156,82.882 25.155,82.882 	"/>
	<path class="st5" d="M87.924,68.056c-0.868-1.336-2.116-2.353-3.565-3.119c-5.718-3.028-11.411-6.157-17.184-9.187l-0.006-0.003
		c-0.704-0.36-1.384-0.451-2.008-0.457h-0.01c-0.61,0.004-1.257,0.095-1.923,0.41l-0.005,0.002
		c-2.547,1.232-5.003,1.822-7.441,1.823c-2.391-0.002-4.783-0.568-7.261-1.772l0,0c-0.606-0.296-1.328-0.553-2.159-0.557l0-0.001
		l-0.038-0.001c-0.783,0.001-1.52,0.243-2.151,0.592c-5.831,3.181-11.701,6.314-17.561,9.489c-1.303,0.702-2.387,1.685-3.125,2.901
		c-0.74,1.212-1.112,2.61-1.164,4.064c-0.036,0.984-0.05,1.965-0.05,2.941c0,0.755,0.008,1.506,0.021,2.253
		c0.016,0.89,0.165,1.749,0.472,2.546c0.456,1.199,1.292,2.231,2.39,2.902c1.091,0.672,2.374,0.976,3.716,0.977
		c3.96,0.006,7.921,0.009,11.881,0.009c5.002,0,10.003-0.003,15.004-0.003h2.114V83.83c4.359,0.001,8.719,0.003,13.08,0.003
		c3.897,0,7.794-0.002,11.691-0.009c0.907-0.002,1.777-0.122,2.594-0.404c1.237-0.419,2.315-1.253,2.991-2.379
		c0.675-1.112,0.952-2.399,0.978-3.755c0.005-0.302,0.007-0.599,0.007-0.892c0-0.72-0.011-1.418-0.011-2.092
		c0-0.424,0.004-0.841,0.018-1.247c0.004-0.122,0.006-0.243,0.006-0.365v-0.026C89.225,70.974,88.795,69.385,87.924,68.056z
		 M84.985,76.396c0,0.274-0.002,0.545-0.007,0.814c-0.01,0.551-0.091,0.976-0.194,1.27c-0.182,0.466-0.305,0.595-0.591,0.79
		c-0.264,0.163-0.75,0.326-1.559,0.328c-3.893,0.007-7.788,0.009-11.683,0.009c-5.064,0-10.128-0.003-15.193-0.003h-2.114v0.035
		c-4.297,0-8.594,0.002-12.89,0.002c-3.959,0-7.917-0.002-11.875-0.008c-0.479-0.001-0.855-0.074-1.138-0.176
		c-0.438-0.169-0.643-0.343-0.853-0.648c-0.192-0.298-0.351-0.746-0.365-1.448c-0.013-0.729-0.02-1.456-0.02-2.18
		c0-0.935,0.013-1.864,0.047-2.786c0.034-0.858,0.229-1.49,0.549-2.019c0.326-0.529,0.783-0.974,1.529-1.384
		c5.843-3.166,11.714-6.301,17.567-9.492c0.091-0.048,0.136-0.066,0.156-0.073c0.027,0.005,0.117,0.028,0.318,0.126l0.002,0.001l0,0
		l0.102,0.05l0.001-0.003c2.927,1.411,5.936,2.144,8.955,2.15l0.01,0.002h0.044l0.034-0.001v0c2.954-0.004,5.89-0.706,8.756-2.02
		l0.039,0.099l0.434-0.304l0.086-0.01l0.147,0.013c5.703,2.995,11.368,6.107,17.102,9.143c0.986,0.524,1.605,1.084,1.999,1.688
		c0.392,0.616,0.608,1.294,0.616,2.331l-0.004,0.233h0c-0.016,0.468-0.02,0.928-0.02,1.378
		C84.973,75.024,84.985,75.721,84.985,76.396z"/>
	<path class="st5" d="M37.382,32.032l0,0.002l0.001,0.064l0.005,0.499h0.012c0.052,2.298,0.303,4.391,0.804,6.332
		c0.537,2.082,1.354,3.989,2.443,5.777c3.466,5.722,9.208,8.822,15.046,8.826l0.01,0.001h0.027l0.03,0v-0.001
		c4.542-0.002,9.122-1.882,12.661-5.622c3.807-4.03,5.706-9.573,5.711-15.063c-0.002-4.127-1.08-8.266-3.375-11.744
		c-3.598-5.457-9.154-8.695-14.975-8.707v0l-0.013,0c-0.005,0-0.01-0.001-0.015-0.001v0l-0.006,0c-2.365,0-4.756,0.54-7.013,1.652
		c-3.847,1.884-6.652,4.588-8.477,7.721c-1.765,3.021-2.621,6.401-2.842,9.828l-0.035,0L37.382,32.032z M55.729,49.306
		c-4.369-0.01-8.698-2.255-11.471-6.797c-0.886-1.459-1.524-2.949-1.961-4.638c-0.432-1.671-0.661-3.547-0.685-5.752
		c0.162-2.999,0.884-5.806,2.294-8.218c1.428-2.432,3.535-4.502,6.692-6.06c1.692-0.831,3.425-1.218,5.154-1.219
		c4.229,0,8.523,2.354,11.477,6.812c1.773,2.678,2.674,6.016,2.674,9.404l0,0.009h0v0.018c0.002,4.511-1.611,9.049-4.551,12.137
		C62.557,47.939,59.132,49.299,55.729,49.306z"/>
</g>
</svg>
