<?xml version="1.0" encoding="utf-8"?>
<!-- Generator: Adobe Illustrator 22.0.0, SVG Export Plug-In . SVG Version: 6.00 Build 0)  -->
<svg version="1.1" id="Layer_1" xmlns="http://www.w3.org/2000/svg" xmlns:xlink="http://www.w3.org/1999/xlink" x="0px" y="0px"
	 width="587.482px" height="186.355px" viewBox="0 0 587.482 186.355" style="enable-background:new 0 0 587.482 186.355;"
	 xml:space="preserve">
<style type="text/css">
	.st0{fill:#FFFFFF;}
	.st1{fill:#E6E6E6;}
	.st2{fill:none;stroke:#B3B3B3;stroke-width:2;stroke-miterlimit:10;}
	.st3{fill:#FFFFFF;stroke:#999999;stroke-miterlimit:10;}
	.st4{fill:none;stroke:#999999;stroke-miterlimit:10;}
	.st5{fill:#FFFFFF;stroke:#32C2FF;stroke-width:10;stroke-miterlimit:10;}
	.st6{fill:#484848;}
	.st7{fill:#32C2FF;}
	.st8{fill:#999999;}
	.st9{fill:#BF0215;}
	.st10{fill:#00CAFF;}
	.st11{fill:#00B1FF;}
	.st12{fill:none;stroke:#000000;stroke-width:3;stroke-miterlimit:10;}
	.st13{fill:none;stroke:#000000;stroke-width:3;stroke-linecap:round;stroke-linejoin:round;stroke-miterlimit:10;}
</style>
<g>
	<g>
		<path class="st0" d="M231.93,116.354h-15.025c-2.168,0-3.717-0.486-4.645-1.459c-0.928-0.973-1.391-2.521-1.391-4.645V73.294
			c0-2.168,0.474-3.728,1.425-4.679c0.95-0.95,2.487-1.425,4.611-1.425h15.929c2.348,0,4.382,0.146,6.104,0.436
			c1.721,0.291,3.264,0.85,4.628,1.677c1.162,0.693,2.191,1.571,3.085,2.633c0.894,1.062,1.576,2.236,2.046,3.521
			c0.469,1.286,0.704,2.644,0.704,4.075c0,4.918-2.46,8.517-7.378,10.798c6.461,2.057,9.692,6.059,9.692,12.006
			c0,2.749-0.704,5.226-2.112,7.428c-1.409,2.202-3.309,3.829-5.701,4.879c-1.498,0.626-3.219,1.068-5.164,1.325
			C236.793,116.225,234.523,116.354,231.93,116.354z M220.83,74.669v12.71h9.121c2.482,0,4.399-0.235,5.751-0.704
			s2.386-1.363,3.103-2.683c0.558-0.939,0.838-1.99,0.838-3.153c0-2.482-0.884-4.13-2.649-4.946
			c-1.767-0.816-4.461-1.224-8.082-1.224H220.83z M231.192,94.522H220.83v14.354h10.698c6.729,0,10.094-2.426,10.094-7.277
			c0-2.482-0.872-4.281-2.616-5.399C237.263,95.081,234.658,94.522,231.192,94.522z"/>
		<path class="st0" d="M257.786,96.031V72.389c0-2.012,0.452-3.521,1.358-4.527c0.906-1.006,2.096-1.509,3.572-1.509
			c1.543,0,2.767,0.503,3.672,1.509c0.905,1.006,1.358,2.515,1.358,4.527v24.179c0,2.75,0.307,5.048,0.922,6.892
			c0.614,1.844,1.705,3.276,3.27,4.293c1.565,1.018,3.756,1.526,6.573,1.526c3.89,0,6.64-1.034,8.25-3.102
			c1.61-2.068,2.414-5.204,2.414-9.407v-24.38c0-2.034,0.447-3.549,1.342-4.544c0.894-0.995,2.09-1.493,3.588-1.493
			c1.498,0,2.711,0.498,3.639,1.493c0.928,0.995,1.391,2.51,1.391,4.544v23.643c0,3.846-0.374,7.054-1.123,9.625
			c-0.75,2.571-2.164,4.829-4.243,6.774c-1.789,1.655-3.868,2.862-6.238,3.622c-2.37,0.76-5.142,1.14-8.316,1.14
			c-3.779,0-7.032-0.408-9.759-1.224c-2.728-0.816-4.952-2.079-6.674-3.79c-1.722-1.71-2.985-3.901-3.79-6.573
			C258.189,102.935,257.786,99.743,257.786,96.031z"/>
		<path class="st0" d="M310.303,111.122V72.389c0-2.012,0.458-3.521,1.375-4.527c0.916-1.006,2.101-1.509,3.554-1.509
			c1.498,0,2.711,0.498,3.639,1.493c0.927,0.995,1.391,2.51,1.391,4.544v38.734c0,2.034-0.464,3.555-1.391,4.561
			c-0.928,1.006-2.141,1.509-3.639,1.509c-1.431,0-2.61-0.508-3.538-1.526C310.767,114.65,310.303,113.135,310.303,111.122z"/>
		<path class="st0" d="M363.324,75.407h-10.866v35.716c0,2.057-0.458,3.583-1.375,4.578c-0.917,0.994-2.102,1.492-3.555,1.492
			c-1.475,0-2.677-0.503-3.605-1.509c-0.928-1.006-1.391-2.526-1.391-4.561V75.407h-10.866c-1.699,0-2.963-0.374-3.79-1.123
			c-0.828-0.748-1.241-1.738-1.241-2.967c0-1.275,0.43-2.281,1.291-3.019c0.861-0.738,2.107-1.107,3.74-1.107h31.658
			c1.721,0,3.001,0.381,3.84,1.14c0.839,0.76,1.258,1.756,1.258,2.985c0,1.229-0.425,2.219-1.275,2.967
			C366.297,75.033,365.022,75.407,363.324,75.407z"/>
		<path class="st0" d="M401.453,110.787l-2.347-6.171h-19.988l-2.348,6.304c-0.917,2.46-1.699,4.119-2.348,4.98
			c-0.648,0.86-1.71,1.291-3.186,1.291c-1.252,0-2.359-0.458-3.32-1.375c-0.962-0.917-1.442-1.956-1.442-3.119
			c0-0.67,0.111-1.363,0.335-2.079c0.223-0.715,0.592-1.71,1.107-2.985l12.576-31.926c0.358-0.916,0.788-2.017,1.291-3.303
			c0.503-1.285,1.04-2.353,1.61-3.203c0.57-0.85,1.319-1.537,2.247-2.062c0.927-0.525,2.073-0.788,3.437-0.788
			c1.386,0,2.543,0.263,3.471,0.788c0.928,0.526,1.677,1.202,2.247,2.029c0.57,0.827,1.05,1.716,1.442,2.666
			c0.39,0.95,0.888,2.219,1.492,3.806l12.844,31.725c1.006,2.414,1.509,4.169,1.509,5.265c0,1.14-0.475,2.186-1.425,3.135
			c-0.95,0.95-2.096,1.425-3.437,1.425c-0.783,0-1.454-0.14-2.012-0.419c-0.559-0.28-1.029-0.659-1.409-1.14
			c-0.38-0.48-0.788-1.218-1.224-2.214C402.141,112.425,401.766,111.548,401.453,110.787z M381.735,97.138h14.689l-7.412-20.289
			L381.735,97.138z"/>
		<path class="st0" d="M432.374,72.321l19.149,28.975V72.053c0-1.9,0.408-3.325,1.224-4.276c0.816-0.95,1.916-1.425,3.303-1.425
			c1.431,0,2.56,0.475,3.387,1.425c0.827,0.951,1.241,2.376,1.241,4.276v38.667c0,4.315-1.789,6.472-5.366,6.472
			c-0.894,0-1.699-0.129-2.415-0.386c-0.716-0.257-1.386-0.664-2.012-1.224c-0.626-0.558-1.207-1.212-1.744-1.962
			c-0.536-0.748-1.074-1.514-1.61-2.297l-18.68-28.64v28.808c0,1.878-0.436,3.298-1.307,4.259c-0.872,0.961-1.99,1.442-3.354,1.442
			c-1.409,0-2.538-0.486-3.387-1.459c-0.85-0.973-1.274-2.386-1.274-4.242v-37.93c0-1.609,0.179-2.872,0.536-3.789
			c0.424-1.006,1.129-1.828,2.112-2.465c0.984-0.638,2.046-0.956,3.186-0.956c0.894,0,1.661,0.146,2.298,0.436
			c0.637,0.291,1.195,0.682,1.677,1.174c0.48,0.492,0.973,1.129,1.475,1.912C431.317,70.656,431.837,71.472,432.374,72.321z"/>
		<path class="st0" d="M477.747,67.19h12.979c3.375,0,6.271,0.314,8.685,0.94c2.415,0.626,4.605,1.8,6.573,3.521
			c5.12,4.382,7.68,11.045,7.68,19.987c0,2.951-0.257,5.646-0.772,8.082c-0.514,2.437-1.307,4.634-2.381,6.59
			c-1.073,1.956-2.448,3.706-4.125,5.248c-1.319,1.185-2.761,2.136-4.326,2.851c-1.565,0.716-3.248,1.219-5.047,1.509
			c-1.8,0.291-3.829,0.436-6.087,0.436h-12.979c-1.811,0-3.175-0.273-4.091-0.822c-0.917-0.548-1.515-1.319-1.794-2.314
			c-0.28-0.994-0.419-2.286-0.419-3.873V73.294c0-2.146,0.48-3.7,1.442-4.662C474.047,67.671,475.601,67.19,477.747,67.19z
			 M481.604,75.071v33.368h7.545c1.655,0,2.951-0.045,3.89-0.134c0.939-0.089,1.912-0.313,2.918-0.671
			c1.006-0.357,1.878-0.86,2.615-1.509c3.331-2.817,4.997-7.668,4.997-14.554c0-4.851-0.733-8.485-2.197-10.899
			c-1.465-2.415-3.27-3.952-5.416-4.611c-2.146-0.659-4.741-0.99-7.78-0.99H481.604z"/>
		<path class="st0" d="M551.258,110.787l-2.347-6.171h-19.988l-2.348,6.304c-0.917,2.46-1.699,4.119-2.348,4.98
			c-0.648,0.86-1.71,1.291-3.186,1.291c-1.252,0-2.359-0.458-3.32-1.375c-0.962-0.917-1.442-1.956-1.442-3.119
			c0-0.67,0.111-1.363,0.335-2.079c0.223-0.715,0.592-1.71,1.107-2.985l12.576-31.926c0.358-0.916,0.788-2.017,1.291-3.303
			c0.503-1.285,1.039-2.353,1.61-3.203c0.57-0.85,1.319-1.537,2.247-2.062c0.927-0.525,2.073-0.788,3.437-0.788
			c1.386,0,2.543,0.263,3.471,0.788c0.928,0.526,1.677,1.202,2.247,2.029c0.57,0.827,1.05,1.716,1.442,2.666
			c0.391,0.95,0.888,2.219,1.492,3.806l12.844,31.725c1.006,2.414,1.509,4.169,1.509,5.265c0,1.14-0.475,2.186-1.425,3.135
			c-0.95,0.95-2.096,1.425-3.437,1.425c-0.783,0-1.454-0.14-2.012-0.419c-0.559-0.28-1.029-0.659-1.409-1.14
			c-0.38-0.48-0.788-1.218-1.224-2.214C551.946,112.425,551.571,111.548,551.258,110.787z M531.54,97.138h14.689l-7.412-20.289
			L531.54,97.138z"/>
	</g>
	<g>
		<circle class="st0" cx="40.661" cy="103.19" r="3.034"/>
		<circle class="st0" cx="40.864" cy="84.177" r="3.034"/>
		<circle class="st0" cx="46.729" cy="93.987" r="3.034"/>
		<circle class="st0" cx="40.661" cy="103.19" r="3.034"/>
		<circle class="st0" cx="40.864" cy="84.177" r="3.034"/>
		<circle class="st0" cx="46.729" cy="93.987" r="3.034"/>
		<circle class="st0" cx="27.919" cy="100.972" r="2.326"/>
		<circle class="st0" cx="28.074" cy="86.395" r="2.326"/>
		<circle class="st0" cx="32.874" cy="93.916" r="2.326"/>
		<circle class="st0" cx="52.089" cy="111.988" r="6.068"/>
		<circle class="st0" cx="52.089" cy="75.48" r="6.068"/>
		<circle class="st0" cx="64.225" cy="94.492" r="6.068"/>
		<g>
			<path class="st0" d="M181.772,83.705l-77.164-72.853c-4.024-3.8-10.426-3.616-14.226,0.409L43.501,60.917H62V46.556h42.07
				c0,0,19.822-0.202,23.867,23.26c0,0,2.427,14.967-10.518,24.676c0,0,15.776,11.731,9.304,30.946c0,0-6.675,17.799-25.283,17.394
				H62v-13.956H45.717l49.386,46.626c4.024,3.8,10.426,3.616,14.226-0.409l72.853-77.164
				C185.981,93.906,185.797,87.504,181.772,83.705z"/>
		</g>
		<path class="st0" d="M99.671,63.445H77.523v23.058h22.148c6.341,0,11.529-5.188,11.529-11.529
			C111.2,68.633,106.012,63.445,99.671,63.445z"/>
		<path class="st0" d="M99.671,103.038H77.523v23.058h22.148c6.341,0,11.529-5.188,11.529-11.529S106.012,103.038,99.671,103.038z"
			/>
	</g>
</g>
</svg>
