<?xml version="1.0" encoding="utf-8"?>
<!-- Generator: Adobe Illustrator 22.0.0, SVG Export Plug-In . SVG Version: 6.00 Build 0)  -->
<svg version="1.1" id="Layer_1" xmlns="http://www.w3.org/2000/svg" xmlns:xlink="http://www.w3.org/1999/xlink" x="0px" y="0px"
	 width="139.395px" height="135.475px" viewBox="0 0 139.395 135.475" style="enable-background:new 0 0 139.395 135.475;"
	 xml:space="preserve">
<style type="text/css">
	.st0{fill:#FFFFFF;}
	.st1{fill:#E6E6E6;}
	.st2{fill:none;stroke:#B3B3B3;stroke-width:2;stroke-miterlimit:10;}
	.st3{fill:none;stroke:#999999;stroke-miterlimit:10;}
	.st4{fill:#FFFFFF;stroke:#32C2FF;stroke-width:10;stroke-miterlimit:10;}
	.st5{fill:#484848;}
	.st6{fill:#32C2FF;}
	.st7{fill:#999999;}
	.st8{fill:#BF0215;}
	.st9{fill:#00CAFF;}
	.st10{fill:#00B1FF;}
	.st11{fill:none;stroke:#000000;stroke-width:3;stroke-miterlimit:10;}
	.st12{fill:none;stroke:#000000;stroke-width:3;stroke-linecap:round;stroke-linejoin:round;stroke-miterlimit:10;}
</style>
<g>
	<path class="st5" d="M84.397,13.697c2.486,1.008,3.349,2.93,3.337,5.514c-0.046,9.888-0.002,19.776-0.028,29.665
		c-0.009,3.246-1.22,4.85-3.81,5.284c-3.011,0.505-5.209-1.548-5.228-5.054c-0.044-7.878-0.015-15.757-0.015-23.635
		c0-0.862,0-1.725,0-2.664c-18.171,0-36.053,0-54.072,0c0,29.996,0,59.852,0,89.848c18.023,0,35.905,0,54.072,0
		c0-1.755,0-3.421,0-5.086c0.001-7.075-0.032-14.149,0.016-21.223c0.024-3.5,2.216-5.54,5.239-5.045
		c2.567,0.421,3.788,2.049,3.798,5.296c0.028,9.084,0.01,18.169,0.01,27.253c0,0.804-0.033,1.609,0.005,2.411
		c0.123,2.588-0.839,4.507-3.324,5.515c-22.977,0-45.953,0-68.964,0c0-35.969,0-71.938,0-108.08
		C38.398,13.697,61.397,13.697,84.397,13.697z"/>
	<path class="st5" d="M123.962,68.702c-1.104,1.334-2.115,2.759-3.328,3.985c-5.316,5.37-10.692,10.681-16.044,16.015
		c-1.616,1.61-3.49,1.98-5.485,0.902c-1.819-0.983-2.619-2.682-2.144-4.672c0.242-1.014,0.951-2.019,1.694-2.792
		c3.102-3.222,6.298-6.354,9.93-9.991c-1.434,0-2.271,0-3.108,0c-17.766,0-35.532,0.007-53.298-0.007
		c-3.687-0.003-5.356-1.748-4.992-5.121c0.23-2.124,1.449-3.341,3.534-3.631c0.869-0.121,1.765-0.063,2.649-0.063
		c18.165-0.003,36.33-0.002,54.913-0.002c-0.547-0.702-0.856-1.194-1.255-1.596c-2.835-2.849-5.707-5.661-8.53-8.522
		c-2.088-2.117-2.21-4.76-0.376-6.601c1.836-1.844,4.486-1.76,6.631,0.342c5.913,5.795,11.796,11.62,17.651,17.473
		c0.651,0.651,1.044,1.561,1.557,2.351C123.962,67.416,123.962,68.059,123.962,68.702z"/>
</g>
</svg>
