<?xml version="1.0" encoding="utf-8"?>
<!-- Generator: Adobe Illustrator 22.0.0, SVG Export Plug-In . SVG Version: 6.00 Build 0)  -->
<svg version="1.1" id="Layer_1" xmlns="http://www.w3.org/2000/svg" xmlns:xlink="http://www.w3.org/1999/xlink" x="0px" y="0px"
	 width="139.395px" height="135.475px" viewBox="0 0 139.395 135.475" style="enable-background:new 0 0 139.395 135.475;"
	 xml:space="preserve">
<style type="text/css">
	.st0{fill:#FFFFFF;}
	.st1{fill:#E6E6E6;}
	.st2{fill:none;stroke:#B3B3B3;stroke-width:2;stroke-miterlimit:10;}
	.st3{fill:#FFFFFF;stroke:#999999;stroke-miterlimit:10;}
	.st4{fill:none;stroke:#999999;stroke-miterlimit:10;}
	.st5{fill:#FFFFFF;stroke:#32C2FF;stroke-width:10;stroke-miterlimit:10;}
	.st6{fill:#484848;}
	.st7{fill:#32C2FF;}
	.st8{fill:#999999;}
	.st9{fill:#BF0215;}
	.st10{fill:#00CAFF;}
	.st11{fill:#00B1FF;}
	.st12{fill:none;stroke:#000000;stroke-width:3;stroke-miterlimit:10;}
	.st13{fill:none;stroke:#000000;stroke-width:3;stroke-linecap:round;stroke-linejoin:round;stroke-miterlimit:10;}
</style>
<g>
	<path class="st6" d="M42.141,23.29c0,2.059,0,4.15,0,6.362c-0.502,0.107-1.022,0.256-1.551,0.325
		c-3.96,0.518-6.08,2.864-6.118,7.035c-0.058,6.453-0.015,12.908-0.015,19.362c0.002,19.834-0.001,39.668,0.012,59.502
		c0.004,5.699,2.296,7.952,8.05,7.954c18.339,0.007,36.677,0.007,55.016,0.002c4.818-0.002,7.358-2.395,7.365-7.212
		c0.04-26.524,0.042-53.048,0.01-79.571c-0.005-4.497-1.94-6.292-7.642-7.367c0-2.101,0-4.24,0-6.363
		c7.254-1.428,14.463,5.067,14.494,13.092c0.054,13.931,0.015,27.862,0.013,41.793c-0.001,12.829,0.015,25.659-0.012,38.488
		c-0.018,8.489-5.595,14.043-14.061,14.047c-18.654,0.008-37.307,0.01-55.961-0.003c-8.513-0.006-14.113-5.53-14.12-13.976
		c-0.021-26.682-0.024-53.363-0.008-80.045C27.619,28.501,34.583,22.014,42.141,23.29z"/>
	<path class="st6" d="M78.716,17.34c3.554,0,6.685-0.02,9.816,0.005c3.322,0.027,4.934,1.571,5.007,4.878
		c0.064,2.907,0.061,5.818,0.001,8.725c-0.062,3.018-1.657,4.63-4.745,4.64c-12.66,0.041-25.321,0.051-37.982-0.002
		c-3.425-0.014-4.901-1.528-4.984-4.891c-0.072-2.908-0.064-5.82,0.022-8.728c0.089-3.005,1.745-4.566,4.784-4.611
		c2.673-0.04,5.351-0.093,8.02,0.019c1.597,0.067,1.862-0.597,2.044-2.045c0.287-2.273,0.578-4.735,1.661-6.675
		c1.888-3.385,6.063-4.616,9.906-3.554c3.597,0.994,6.232,4.288,6.441,8.124C78.773,14.464,78.716,15.71,78.716,17.34z
		 M73.145,13.791c-0.021-1.914-1.56-3.468-3.434-3.468c-1.909,0-3.429,1.51-3.457,3.434c-0.029,2.066,1.522,3.63,3.541,3.569
		C71.706,17.268,73.166,15.727,73.145,13.791z"/>
	<path class="st6" d="M41.567,57.298c0-1.292,0-2.516,0-3.918c18.717,0,37.383,0,56.209,0c0,1.249,0,2.475,0,3.918
		C79.18,57.298,60.514,57.298,41.567,57.298z"/>
	<path class="st6" d="M97.843,63.736c0,1.376,0,2.538,0,3.891c-18.732,0-37.38,0-56.204,0c0-1.22,0-2.437,0-3.891
		C60.245,63.736,78.952,63.736,97.843,63.736z"/>
	<path class="st6" d="M97.817,84.141c0,1.382,0,2.603,0,3.979c-18.734,0-37.352,0-56.168,0c0-1.262,0-2.539,0-3.979
		C60.298,84.141,78.914,84.141,97.817,84.141z"/>
	<path class="st6" d="M97.819,73.962c0,1.313,0,2.529,0,3.887c-18.741,0-37.402,0-56.212,0c0-1.255,0-2.466,0-3.887
		C60.289,73.962,78.998,73.962,97.819,73.962z"/>
	<path class="st6" d="M85.047,94.49c0,1.321,0,2.536,0,3.923c-14.487,0-28.886,0-43.433,0c0-1.266,0-2.489,0-3.923
		C55.956,94.49,70.354,94.49,85.047,94.49z"/>
	<path class="st6" d="M80.824,118.488c-0.806-0.59-1.603-0.981-2.139-1.599c-2.625-3.026-5.254-6.055-7.698-9.225
		c-0.493-0.639-0.193-1.889-0.258-2.858c0.906,0.13,2.027-0.034,2.677,0.444c2.083,1.532,4.051,3.237,5.944,5.003
		c1.241,1.158,2.143,1.11,3.372-0.044c3.778-3.549,7.625-7.026,11.515-10.452c0.63-0.554,1.741-1.139,2.413-0.948
		c1.43,0.405,1.668,1.664,0.68,2.78c-4.686,5.292-9.408,10.552-14.185,15.763C82.628,117.917,81.678,118.086,80.824,118.488z"/>
	<path class="st6" d="M41.454,47.047c0-1.073-0.01-1.853,0.004-2.632c0.007-0.386,0.058-0.771,0.104-1.341
		c7.427,0,14.816,0,22.384,0c0,1.27,0,2.547,0,3.973C56.493,47.047,49.098,47.047,41.454,47.047z"/>
</g>
</svg>
