<?xml version="1.0" encoding="utf-8"?>
<!-- Generator: Adobe Illustrator 22.0.0, SVG Export Plug-In . SVG Version: 6.00 Build 0)  -->
<svg version="1.1" id="Layer_1" xmlns="http://www.w3.org/2000/svg" xmlns:xlink="http://www.w3.org/1999/xlink" x="0px" y="0px"
	 width="111px" height="96px" viewBox="0 0 111 96" style="enable-background:new 0 0 111 96;" xml:space="preserve">
<style type="text/css">
	.st0{opacity:0.08;}
	.st1{opacity:0.5;}
	.st2{fill:#636363;}
	.st3{fill:#B6B6B6;}
	.st4{fill:none;stroke:#636363;stroke-linecap:round;stroke-miterlimit:10;}
	.st5{fill:url(#SVGID_1_);}
	.st6{fill:#D7D745;}
	.st7{clip-path:url(#SVGID_3_);}
	.st8{fill:#F0F0F1;}
	.st9{fill:#CFD1D2;}
	.st10{fill:#FFFFFF;}
	.st11{fill:#0E1E31;}
	.st12{fill:#F4EAE1;}
	.st13{fill:#EADFD8;}
	.st14{fill:#E0D1C7;}
	.st15{fill:#484848;}
	.st16{fill:url(#SVGID_4_);}
	.st17{clip-path:url(#SVGID_6_);}
	.st18{fill:url(#SVGID_7_);}
	.st19{clip-path:url(#SVGID_9_);}
	.st20{fill:#C4BF26;}
	.st21{fill:#8D2D15;}
	.st22{fill:none;stroke:#B3B3B3;stroke-miterlimit:10;}
	.st23{fill:#B3B3B3;}
	.st24{fill:url(#SVGID_10_);}
	.st25{clip-path:url(#SVGID_12_);}
	.st26{opacity:0.47;}
	.st27{fill:none;stroke:#BF6716;stroke-width:2;stroke-miterlimit:10;}
	.st28{fill:#F24B2A;}
	.st29{fill:#FFFFFF;stroke:#CCCCCC;stroke-miterlimit:10;}
	.st30{fill:url(#SVGID_13_);}
	.st31{clip-path:url(#SVGID_15_);}
	.st32{fill:url(#SVGID_16_);}
	.st33{clip-path:url(#SVGID_18_);}
	.st34{fill:url(#SVGID_19_);}
	.st35{clip-path:url(#SVGID_21_);}
	.st36{fill:none;stroke:#BF6716;stroke-width:3;stroke-miterlimit:10;}
	.st37{fill:url(#SVGID_22_);}
	.st38{clip-path:url(#SVGID_24_);}
	.st39{fill:url(#SVGID_25_);}
	.st40{clip-path:url(#SVGID_27_);}
	.st41{fill:url(#SVGID_28_);}
	.st42{clip-path:url(#SVGID_30_);}
	.st43{fill:url(#SVGID_31_);}
	.st44{clip-path:url(#SVGID_33_);}
	.st45{fill:url(#SVGID_34_);}
	.st46{clip-path:url(#SVGID_36_);}
	.st47{fill:#999999;}
</style>
<g>
	<path class="st15" d="M28.342,16.544c-4.463,0-8.71,0.002-12.958,0c-3.685-0.002-4.257-0.735-3.422-4.385
		c1.072-4.687,4.887-7.978,9.705-7.983c19.224-0.018,38.448,0.047,57.672,0.126c1.723,0.007,3.556,0.027,5.145,0.588
		c4.176,1.473,6.467,5.179,6.476,10.019c0.022,11.51,0.008,23.019,0.008,34.529c0,9.14,0,18.28,0,27.42c0,0.731,0,1.462,0,2.492
		c2.052,0,3.918-0.021,5.783,0.005c2.142,0.03,2.752,0.725,2.6,2.879c-0.353,5.023-4.178,8.959-9.233,9.47
		c-0.94,0.095-1.891,0.117-2.837,0.117c-15.64,0.007-31.279,0.007-46.919,0.004c-8.008-0.001-12.019-3.987-12.02-11.937
		c-0.001-20.244,0-40.487,0-60.731C28.342,18.362,28.342,17.566,28.342,16.544z M30.437,8.266c2.29,3.134,2.054,6.402,2.053,9.64
		c-0.008,20.585-0.006,41.169,0.002,61.754c0,0.877,0.009,1.766,0.146,2.629c0.53,3.335,3.036,5.425,6.337,5.349
		c3.191-0.073,5.58-2.231,6.049-5.464c0.388-2.672,0.544-2.821,3.176-2.822c12.053-0.004,24.106-0.002,36.158-0.002
		c0.784,0,1.568,0,2.476,0c0-1.104,0-1.91,0-2.717c0-15.235,0.001-30.471,0-45.706c0-5.485,0.035-10.97-0.021-16.454
		c-0.034-3.407-2.176-5.784-5.525-6.141C79.772,8.17,78.23,8.268,76.7,8.268C62.142,8.265,47.584,8.266,33.025,8.266
		C32.311,8.266,31.596,8.266,30.437,8.266z M47.408,87.578c0.61,0.037,1.012,0.083,1.414,0.083
		c13.129,0.004,26.258,0.006,39.388-0.005c0.741-0.001,1.498-0.031,2.22-0.18c2.158-0.447,3.699-2.027,3.91-3.902
		c-15.069,0-30.14,0-45.15,0C48.599,84.902,48.054,86.125,47.408,87.578z M27.688,12.309c-0.943-2.83-3.209-4.259-6.234-4.013
		c-2.468,0.201-4.4,1.803-4.814,4.013C20.315,12.309,23.985,12.309,27.688,12.309z"/>
	<path class="st15" d="M59.784,33.291c-6.699,0-13.399,0.023-20.098-0.031c-0.815-0.007-1.812-0.215-2.4-0.713
		c-1.131-0.956-0.607-2.768,0.861-3.216c0.691-0.211,1.466-0.199,2.204-0.199c12.925-0.011,25.85-0.008,38.775-0.007
		c0.406,0,0.812-0.006,1.218,0.01c1.427,0.057,2.381,0.741,2.322,2.223c-0.056,1.402-1.053,1.929-2.378,1.929
		c-5.008-0.002-10.015,0.003-15.023,0.005C63.438,33.292,61.611,33.292,59.784,33.291z"/>
	<path class="st15" d="M59.563,41.654c-6.631,0-13.263-0.01-19.894,0.007c-1.456,0.004-2.835-0.093-2.872-1.994
		c-0.04-2.03,1.401-2.142,2.938-2.14c13.33,0.012,26.661,0.018,39.991-0.007c1.509-0.003,2.887,0.257,2.919,2.008
		c0.034,1.885-1.396,2.15-2.985,2.142C72.961,41.633,66.262,41.654,59.563,41.654z"/>
	<path class="st15" d="M59.627,24.959c-6.7,0-13.399-0.011-20.099,0.008c-1.527,0.004-2.754-0.318-2.735-2.161
		c0.016-1.61,1.089-1.985,2.476-1.981c4.94,0.015,9.88,0.004,14.82,0.004c8.527,0,17.053,0.016,25.58-0.014
		c1.577-0.006,3.025,0.22,2.974,2.134c-0.047,1.734-1.397,2.034-2.918,2.026C73.026,24.938,66.326,24.959,59.627,24.959z"/>
	<path class="st15" d="M59.566,58.346c-6.632,0-13.264-0.008-19.896,0.006c-1.444,0.003-2.847-0.059-2.874-1.982
		c-0.028-2.012,1.406-2.165,2.942-2.164c13.332,0.007,26.664,0.013,39.996-0.008c1.513-0.002,2.87,0.301,2.911,2.041
		c0.045,1.918-1.402,2.131-2.979,2.123C72.966,58.325,66.266,58.346,59.566,58.346z"/>
	<path class="st15" d="M59.645,62.631c6.699,0,13.398,0.016,20.097-0.012c1.489-0.006,2.9,0.206,2.914,1.993
		c0.015,1.867-1.41,2.179-2.995,2.176C66.331,66.77,53,66.783,39.67,66.773c-2.144-0.002-3.104-0.84-2.87-2.442
		c0.24-1.64,1.471-1.703,2.748-1.702C46.247,62.634,52.946,62.631,59.645,62.631z"/>
	<path class="st15" d="M59.656,45.936c6.698-0.001,13.397,0.016,20.095-0.013c1.486-0.006,2.895,0.185,2.909,1.985
		c0.015,1.889-1.432,2.162-3.001,2.161C66.329,50.053,53,50.06,39.671,50.059c-1.443,0-2.808-0.173-2.876-2.045
		c-0.064-1.765,1.119-2.084,2.563-2.082C46.123,45.942,52.89,45.937,59.656,45.936z"/>
	<path class="st15" d="M56.731,16.542c-3.041,0-6.083-0.024-9.124,0.01c-1.416,0.016-2.437-0.429-2.471-1.991
		c-0.033-1.545,0.954-2.135,2.365-2.137c6.015-0.009,12.03-0.006,18.045-0.005c1.392,0,2.468,0.548,2.495,2.052
		c0.031,1.657-1.103,2.103-2.593,2.083C62.543,16.514,59.637,16.542,56.731,16.542z"/>
	<path class="st15" d="M76.243,75.037c-1.352-0.002-2.752,0.211-4.037-0.081c-0.775-0.176-1.975-1.215-1.91-1.73
		c0.104-0.823,1.051-2.128,1.731-2.187c2.884-0.247,5.812-0.252,8.697-0.013c0.712,0.059,1.749,1.304,1.874,2.12
		c0.177,1.156-0.784,1.912-2.098,1.897C79.082,75.026,77.663,75.039,76.243,75.037z"/>
	<path class="st15" d="M42.99,75.032c-1.416,0.001-2.877,0.21-4.23-0.081c-0.751-0.162-1.817-1.138-1.844-1.783
		c-0.029-0.713,0.927-2.06,1.528-2.103c3.014-0.218,6.062-0.218,9.076-0.001c0.605,0.043,1.576,1.382,1.541,2.081
		c-0.033,0.658-1.089,1.64-1.842,1.804C45.868,75.243,44.406,75.031,42.99,75.032z"/>
</g>
</svg>
