<?xml version="1.0" encoding="utf-8"?>
<!-- Generator: Adobe Illustrator 22.0.0, SVG Export Plug-In . SVG Version: 6.00 Build 0)  -->
<svg version="1.1" id="Layer_1" xmlns="http://www.w3.org/2000/svg" xmlns:xlink="http://www.w3.org/1999/xlink" x="0px" y="0px"
	 width="139.395px" height="135.475px" viewBox="0 0 139.395 135.475" style="enable-background:new 0 0 139.395 135.475;"
	 xml:space="preserve">
<style type="text/css">
	.st0{fill:#FFFFFF;}
	.st1{fill:#E6E6E6;}
	.st2{fill:none;stroke:#B3B3B3;stroke-width:2;stroke-miterlimit:10;}
	.st3{fill:#FFFFFF;stroke:#999999;stroke-miterlimit:10;}
	.st4{fill:none;stroke:#999999;stroke-miterlimit:10;}
	.st5{fill:#FFFFFF;stroke:#32C2FF;stroke-width:10;stroke-miterlimit:10;}
	.st6{fill:#484848;}
	.st7{fill:#32C2FF;}
	.st8{fill:#999999;}
	.st9{fill:#BF0215;}
	.st10{fill:#00CAFF;}
	.st11{fill:#00B1FF;}
	.st12{fill:none;stroke:#000000;stroke-width:3;stroke-miterlimit:10;}
	.st13{fill:none;stroke:#000000;stroke-width:3;stroke-linecap:round;stroke-linejoin:round;stroke-miterlimit:10;}
</style>
<g>
	<path class="st6" d="M67.438,124.26c-5.412-1.6-9.637-4.516-11.24-10.268c-0.332-1.19-0.486-2.43-0.766-3.879
		c-3.044,0-6.036,0-9.027,0c-7.109,0-14.219-0.033-21.328,0.018c-2.316,0.017-4.204-0.496-4.759-3.046
		c-0.403-1.854,1.028-3.571,3.566-4.488c7.283-2.632,10.508-7.194,10.515-14.931c0.011-10.957-0.004-21.913,0.005-32.87
		c0.014-16.22,8.422-28.524,23.515-34.501c0.614-0.243,1.397-0.756,1.569-1.309c1.321-4.262,4.419-6.506,8.452-7.772
		c1.172,0,2.345,0,3.517,0c4.041,1.258,7.126,3.516,8.452,7.773c0.173,0.554,0.958,1.063,1.573,1.311
		c15.231,6.13,23.504,18.333,23.512,34.76c0.005,10.874-0.004,21.748,0.003,32.621c0.005,7.729,3.254,12.322,10.531,14.924
		c2.572,0.92,3.953,2.593,3.545,4.486c-0.552,2.564-2.447,3.051-4.758,3.04c-9.201-0.044-18.402-0.018-27.603-0.018
		c-0.9,0-1.801,0-2.396,0c-0.887,2.583-1.407,4.98-2.498,7.081c-2.048,3.944-5.738,5.87-9.858,7.066
		C70.453,124.26,68.945,124.26,67.438,124.26z M103.052,103.043c-4.99-8.575-5.026-8.762-5.009-18.717
		c0.017-10.213,0.258-20.435-0.125-30.634c-0.153-4.071-1.097-8.364-2.755-12.077c-4.112-9.21-11.692-14.313-21.847-16.142
		c0-1.253,0.113-2.5-0.025-3.719c-0.235-2.076-1.377-3.454-3.575-3.47c-2.205-0.016-3.312,1.373-3.629,3.428
		c-0.114,0.736-0.086,1.508-0.024,2.255c0.103,1.252-0.418,1.66-1.666,1.912C50.735,28.634,41.454,39.929,41.37,53.9
		c-0.06,10.045,0.026,20.091-0.036,30.136c-0.02,3.169,0.149,6.448-0.597,9.473c-0.814,3.299-2.59,6.36-3.951,9.534
		C58.65,103.043,80.716,103.043,103.052,103.043z M62.732,110.229c0.268,4.216,3.09,7.005,6.967,6.992
		c3.915-0.012,6.707-2.78,6.947-6.992C72.006,110.229,67.372,110.229,62.732,110.229z"/>
</g>
</svg>
