<?xml version="1.0" encoding="utf-8"?>
<!-- Generator: Adobe Illustrator 22.0.0, SVG Export Plug-In . SVG Version: 6.00 Build 0)  -->
<svg version="1.1" id="Layer_1" xmlns="http://www.w3.org/2000/svg" xmlns:xlink="http://www.w3.org/1999/xlink" x="0px" y="0px"
	 width="111px" height="96px" viewBox="0 0 111 96" style="enable-background:new 0 0 111 96;" xml:space="preserve">
<style type="text/css">
	.st0{opacity:0.08;}
	.st1{opacity:0.5;}
	.st2{fill:#636363;}
	.st3{fill:#B6B6B6;}
	.st4{fill:none;stroke:#636363;stroke-linecap:round;stroke-miterlimit:10;}
	.st5{fill:url(#SVGID_1_);}
	.st6{fill:#D7D745;}
	.st7{clip-path:url(#SVGID_3_);}
	.st8{fill:#F0F0F1;}
	.st9{fill:#CFD1D2;}
	.st10{fill:#FFFFFF;}
	.st11{fill:#0E1E31;}
	.st12{fill:#F4EAE1;}
	.st13{fill:#EADFD8;}
	.st14{fill:#E0D1C7;}
	.st15{fill:#484848;}
	.st16{fill:url(#SVGID_4_);}
	.st17{clip-path:url(#SVGID_6_);}
	.st18{fill:url(#SVGID_7_);}
	.st19{clip-path:url(#SVGID_9_);}
	.st20{fill:#C4BF26;}
	.st21{fill:#8D2D15;}
	.st22{fill:none;stroke:#B3B3B3;stroke-miterlimit:10;}
	.st23{fill:#B3B3B3;}
	.st24{fill:url(#SVGID_10_);}
	.st25{clip-path:url(#SVGID_12_);}
	.st26{opacity:0.47;}
	.st27{fill:none;stroke:#BF6716;stroke-width:2;stroke-miterlimit:10;}
	.st28{fill:#F24B2A;}
	.st29{fill:#FFFFFF;stroke:#CCCCCC;stroke-miterlimit:10;}
	.st30{fill:url(#SVGID_13_);}
	.st31{clip-path:url(#SVGID_15_);}
	.st32{fill:url(#SVGID_16_);}
	.st33{clip-path:url(#SVGID_18_);}
	.st34{fill:url(#SVGID_19_);}
	.st35{clip-path:url(#SVGID_21_);}
	.st36{fill:none;stroke:#BF6716;stroke-width:3;stroke-miterlimit:10;}
	.st37{fill:url(#SVGID_22_);}
	.st38{clip-path:url(#SVGID_24_);}
	.st39{fill:url(#SVGID_25_);}
	.st40{clip-path:url(#SVGID_27_);}
	.st41{fill:url(#SVGID_28_);}
	.st42{clip-path:url(#SVGID_30_);}
	.st43{fill:url(#SVGID_31_);}
	.st44{clip-path:url(#SVGID_33_);}
	.st45{fill:url(#SVGID_34_);}
	.st46{clip-path:url(#SVGID_36_);}
	.st47{fill:#999999;}
</style>
<g>
	<path class="st15" d="M93.542,47.212c-0.333,3.63-2.607,6.088-5.057,8.463c-3.616,3.505-7.077,7.181-10.82,10.543
		c-4.813,4.322-13.369,1.606-14.892-4.609c-0.22-0.897-0.384-1.969-0.098-2.795c0.523-1.508-0.014-2.384-1.052-3.371
		c-1.019-0.968-1.81-2.176-2.79-3.39c-4.986,5.973-9.531,11.434-14.093,16.88c-4.526,5.404-9.057,10.803-13.609,16.186
		c-3.098,3.663-8.286,4.23-12.121,1.328c-2.594-1.963-4.737-4.278-5.553-7.558c0-1.068,0-2.136,0-3.203
		c0.516-2.753,2.392-4.536,4.414-6.228c10.093-8.445,20.18-16.897,30.268-25.348c0.314-0.263,0.619-0.538,1.367-1.19
		c-1.515-1.351-2.935-2.656-4.41-3.897c-0.259-0.218-0.764-0.269-1.129-0.216c-4.537,0.654-7.252-0.497-9.193-3.94
		c-2.002-3.55-1.703-7.952,0.789-11.009c0.748-0.918,1.553-1.796,2.393-2.631c3.493-3.468,6.944-6.981,10.535-10.346
		c3.677-3.446,9.819-3.31,13.416,0.164c1.97,1.902,2.844,4.207,2.209,6.931c-0.268,1.151-0.029,1.951,0.845,2.81
		c5.412,5.324,10.768,10.704,16.113,16.095c0.722,0.728,1.322,1.017,2.447,0.799c4.69-0.91,8.776,2.093,9.673,6.92
		c0.096,0.518,0.233,1.029,0.35,1.543C93.542,46.5,93.542,46.856,93.542,47.212z M51.645,45.519
		c-3.895,3.239-7.636,6.324-11.348,9.443c-7.257,6.098-14.528,12.18-21.729,18.344c-2.4,2.055-2.542,5.193-0.5,7.595
		c0.839,0.987,1.818,1.869,2.812,2.706c2.326,1.958,5.655,1.78,7.624-0.557C37.476,72.406,46.4,61.721,55.29,51.007
		c0.287-0.346,0.251-1.357-0.046-1.721C54.199,48.01,52.975,46.881,51.645,45.519z M61.861,22.469
		c-4.786,4.751-9.514,9.444-14.285,14.18c5.958,5.82,11.874,11.597,17.63,17.22c4.583-4.563,9.317-9.276,13.842-13.781
		C73.336,34.232,67.558,28.309,61.861,22.469z M42.328,35.815c0.341-0.184,1.298-0.462,1.923-1.078
		C49.53,29.546,54.78,24.325,59.965,19.04c1.594-1.624,1.443-3.709-0.108-5.419c-2.304-2.541-6.489-2.847-9.111-0.36
		c-4.21,3.993-8.309,8.111-12.281,12.339c-0.927,0.987-1.463,2.592-1.644,3.982C36.404,32.788,38.933,35.814,42.328,35.815z
		 M90.413,47.119c-0.144-0.073-0.289-0.145-0.433-0.218c0-0.415,0.036-0.833-0.006-1.243c-0.216-2.095-1.211-3.768-3.137-4.598
		c-1.862-0.803-3.498-0.218-4.952,1.267c-4.889,4.993-9.873,9.893-14.774,14.875c-1.854,1.885-1.666,4.331,0.322,6.064
		c2.464,2.15,6.27,2.307,8.601,0.068c4.227-4.061,8.363-8.221,12.402-12.468C89.372,49.881,89.768,48.382,90.413,47.119z"/>
	<path class="st15" d="M58.661,88.5c-1.37-0.409-1.569-1.433-1.414-2.659c0.522-4.145,4.065-7.291,8.282-7.303
		c5.984-0.016,11.968-0.006,17.952-0.004c5.811,0.002,7.92,1.421,10.061,6.762c0,1.068,0,2.136,0,3.203
		C81.915,88.5,70.288,88.5,58.661,88.5z M60.894,85.066c9.727,0,19.271,0,29.056,0c-0.927-1.79-2.068-3.104-3.837-3.118
		c-7.168-0.057-14.337,0.037-21.505,0.114C62.702,82.082,61.738,83.374,60.894,85.066z"/>
</g>
</svg>
