<?xml version="1.0" encoding="utf-8"?>
<!-- Generator: Adobe Illustrator 22.0.0, SVG Export Plug-In . SVG Version: 6.00 Build 0)  -->
<svg version="1.1" id="Layer_1" xmlns="http://www.w3.org/2000/svg" xmlns:xlink="http://www.w3.org/1999/xlink" x="0px" y="0px"
	 width="111.498px" height="96.263px" viewBox="0 0 111.498 96.263" style="enable-background:new 0 0 111.498 96.263;"
	 xml:space="preserve">
<style type="text/css">
	.st0{fill:#FFFFFF;stroke:#999999;stroke-miterlimit:10;}
	.st1{fill:#32C2FF;stroke:#32C2FF;stroke-miterlimit:10;}
	.st2{fill:#32C2FF;}
	.st3{fill:none;stroke:#E6E6E6;stroke-miterlimit:10;}
	.st4{fill:#FFFFFF;stroke:#32C2FF;stroke-width:10;stroke-miterlimit:10;}
	.st5{fill:#484848;}
	.st6{opacity:0.91;fill:url(#SVGID_1_);}
	.st7{fill:url(#SVGID_2_);}
	.st8{fill:none;stroke:#FFFFFF;stroke-width:4;stroke-miterlimit:10;}
	.st9{fill:#FFFFFF;}
	.st10{fill:#FFFFFF;stroke:#B3B3B3;stroke-width:2;stroke-miterlimit:10;}
	.st11{fill:#999999;}
</style>
<g>
	<path class="st2" d="M32.196,7.677c2.541,0.886,4.517,2.542,6.361,4.456c3.115,3.233,6.349,6.351,9.487,9.562
		c3.752,3.84,3.705,8.464-0.064,12.195c-2.126,2.105-4.255,4.206-6.54,6.466c6.036,8.683,13.35,15.937,22.143,22.164
		c2.218-2.29,4.361-4.532,6.537-6.741c3.504-3.556,8.224-3.668,11.807-0.187c3.95,3.838,7.882,7.7,11.664,11.701
		c1.142,1.208,1.756,2.914,2.612,4.392c0,1.079,0,2.158,0,3.236c-1.109,1.587-2.118,3.257-3.355,4.737
		c-1.221,1.461-2.724,2.682-4.009,4.094c-1.964,2.156-4.423,3.395-7.176,4.159c-0.788,0.219-1.573,0.45-2.36,0.675
		c-1.918,0-3.836,0-5.754,0c-0.803-0.18-1.604-0.378-2.411-0.537c-8.937-1.769-16.729-5.99-23.916-11.386
		C34.621,67.201,24.403,55.731,18.4,40.971c-1.468-3.61-2.093-7.563-3.105-11.358c0-1.438,0-2.877,0-4.315
		c0.19-0.858,0.34-1.728,0.577-2.572c1.991-7.074,7.221-11.339,13.087-15.048C30.038,7.677,31.117,7.677,32.196,7.677z
		 M76.071,83.554c3.928,0.005,7.301-0.976,9.891-4.03c1.236-1.457,2.699-2.721,4.05-4.082c1.453-1.463,1.644-2.934,0.208-4.417
		c-3.957-4.089-7.996-8.103-12.077-12.069c-1.379-1.34-2.906-1.177-4.284,0.19c-2.169,2.153-4.305,4.339-6.484,6.481
		c-2.3,2.263-4.496,2.506-7.097,0.681c-8.912-6.254-16.5-13.847-22.746-22.764c-1.778-2.538-1.549-4.719,0.635-6.95
		c2.138-2.184,4.326-4.318,6.481-6.485c1.476-1.483,1.647-2.962,0.239-4.412c-3.923-4.04-7.899-8.03-11.933-11.959
		c-1.543-1.503-3.019-1.351-4.555,0.171c-1.49,1.476-2.914,3.024-4.467,4.43c-2.536,2.295-3.504,5.205-3.604,8.504
		c-0.155,5.165,1.295,9.978,3.547,14.517c8.57,17.27,21.518,30.206,38.841,38.7C66.948,82.134,71.445,83.353,76.071,83.554z"/>
</g>
</svg>
