<?xml version="1.0" encoding="utf-8"?>
<!-- Generator: Adobe Illustrator 22.0.0, SVG Export Plug-In . SVG Version: 6.00 Build 0)  -->
<svg version="1.1" id="Layer_1" xmlns="http://www.w3.org/2000/svg" xmlns:xlink="http://www.w3.org/1999/xlink" x="0px" y="0px"
	 width="111px" height="96px" viewBox="0 0 111 96" style="enable-background:new 0 0 111 96;" xml:space="preserve">
<style type="text/css">
	.st0{opacity:0.08;}
	.st1{opacity:0.5;}
	.st2{fill:#636363;}
	.st3{fill:#B6B6B6;}
	.st4{fill:none;stroke:#636363;stroke-linecap:round;stroke-miterlimit:10;}
	.st5{fill:url(#SVGID_1_);}
	.st6{fill:#D7D745;}
	.st7{clip-path:url(#SVGID_3_);}
	.st8{fill:#F0F0F1;}
	.st9{fill:#CFD1D2;}
	.st10{fill:#FFFFFF;}
	.st11{fill:#0E1E31;}
	.st12{fill:#F4EAE1;}
	.st13{fill:#EADFD8;}
	.st14{fill:#E0D1C7;}
	.st15{fill:#484848;}
	.st16{fill:url(#SVGID_4_);}
	.st17{clip-path:url(#SVGID_6_);}
	.st18{fill:url(#SVGID_7_);}
	.st19{clip-path:url(#SVGID_9_);}
	.st20{fill:#C4BF26;}
	.st21{fill:#8D2D15;}
	.st22{fill:none;stroke:#B3B3B3;stroke-miterlimit:10;}
	.st23{fill:#B3B3B3;}
	.st24{fill:url(#SVGID_10_);}
	.st25{clip-path:url(#SVGID_12_);}
	.st26{opacity:0.47;}
	.st27{fill:none;stroke:#BF6716;stroke-width:2;stroke-miterlimit:10;}
	.st28{fill:#F24B2A;}
	.st29{fill:#FFFFFF;stroke:#CCCCCC;stroke-miterlimit:10;}
	.st30{fill:url(#SVGID_13_);}
	.st31{clip-path:url(#SVGID_15_);}
	.st32{fill:url(#SVGID_16_);}
	.st33{clip-path:url(#SVGID_18_);}
	.st34{fill:url(#SVGID_19_);}
	.st35{clip-path:url(#SVGID_21_);}
	.st36{fill:none;stroke:#BF6716;stroke-width:3;stroke-miterlimit:10;}
	.st37{fill:url(#SVGID_22_);}
	.st38{clip-path:url(#SVGID_24_);}
	.st39{fill:url(#SVGID_25_);}
	.st40{clip-path:url(#SVGID_27_);}
	.st41{fill:url(#SVGID_28_);}
	.st42{clip-path:url(#SVGID_30_);}
	.st43{fill:url(#SVGID_31_);}
	.st44{clip-path:url(#SVGID_33_);}
	.st45{fill:url(#SVGID_34_);}
	.st46{clip-path:url(#SVGID_36_);}
	.st47{fill:#999999;}
</style>
<g>
	<path class="st15" d="M21.414,35.552c-0.001-4.81-0.006-9.619,0-14.429c0.004-3.492,0.764-4.23,4.339-4.236
		c2.602-0.004,5.209-0.106,7.804,0.03c2.405,0.126,4.181-0.862,5.368-2.784c1.194-1.932,2.232-3.979,3.144-6.061
		c0.754-1.721,1.797-2.593,3.756-2.572c6.465,0.069,12.931,0.056,19.396,0.007c1.831-0.014,2.892,0.77,3.622,2.417
		c0.921,2.079,1.941,4.133,3.117,6.077c1.218,2.014,3.035,3.042,5.538,2.918c2.91-0.144,5.833-0.026,8.75-0.035
		c1.962-0.006,3.298,0.888,3.288,2.895c-0.056,11.111,0.356,22.263-0.472,33.32c-0.907,12.111-7.771,21.333-17.238,28.447
		c-4.431,3.33-9.496,5.838-14.379,8.528c-0.942,0.519-2.539,0.558-3.549,0.137c-10.161-4.237-18.866-10.442-25.281-19.53
		c-4.768-6.755-7.189-14.302-7.2-22.594C21.41,43.91,21.415,39.731,21.414,35.552z M27.095,22.566c0,8.726-0.005,17.15,0.001,25.575
		c0.005,7.595,2.374,14.4,6.955,20.429c5.325,7.008,12.261,11.961,20.232,15.508c0.778,0.346,2.073,0.263,2.814-0.165
		c4.014-2.318,8.186-4.477,11.83-7.302c9.994-7.747,15.428-17.836,15.006-30.804c-0.226-6.932-0.037-13.877-0.045-20.816
		c-0.001-0.759-0.068-1.519-0.112-2.423c-2.145,0-4.11-0.096-6.062,0.019c-4.654,0.275-8.041-1.827-10.556-5.529
		c-0.969-1.426-1.619-3.071-2.608-4.48c-0.441-0.629-1.345-1.279-2.065-1.309c-3.306-0.138-6.646,0.192-9.927-0.127
		c-3.844-0.374-6.202,0.58-7.929,4.45c-2.179,4.882-6.366,7.466-12.036,6.997C30.88,22.446,29.145,22.566,27.095,22.566z"/>
	<path class="st15" d="M55.433,63.272c-5.633,0-7.529-1.868-7.506-7.472c0.013-3.038-0.028-5.857-1.837-8.713
		c-2.43-3.835-0.649-9.186,3.282-12.086c3.967-2.927,9.347-2.651,13.049,0.671c3.593,3.224,4.649,8.359,2.133,12.167
		c-1.218,1.843-1.651,3.632-1.497,5.715c0.052,0.705,0.008,1.416,0.008,2.125C63.065,61.446,61.229,63.272,55.433,63.272z
		 M57.387,57.478c0-2.531-0.15-4.968,0.063-7.373c0.107-1.216,0.626-2.568,1.383-3.52c1.735-2.18,1.856-4.707-0.013-6.556
		c-1.821-1.802-4.771-1.822-6.614-0.045c-1.892,1.824-1.795,4.396-0.109,6.562c0.792,1.017,1.317,2.444,1.438,3.735
		c0.225,2.391,0.064,4.818,0.064,7.198C55.014,57.478,56.09,57.478,57.387,57.478z"/>
</g>
</svg>
