<?xml version="1.0" encoding="utf-8"?>
<!-- Generator: Adobe Illustrator 22.0.0, SVG Export Plug-In . SVG Version: 6.00 Build 0)  -->
<svg version="1.1" id="Layer_1" xmlns="http://www.w3.org/2000/svg" xmlns:xlink="http://www.w3.org/1999/xlink" x="0px" y="0px"
	 width="139.395px" height="135.475px" viewBox="0 0 139.395 135.475" style="enable-background:new 0 0 139.395 135.475;"
	 xml:space="preserve">
<style type="text/css">
	.st0{fill:#FFFFFF;}
	.st1{fill:#E5E5E5;}
	.st2{fill:none;stroke:#B2B2B2;stroke-width:2;stroke-miterlimit:10;}
	.st3{fill:none;stroke:#989898;stroke-miterlimit:10;}
	.st4{fill:#FFFFFF;stroke:#32C1FF;stroke-width:10;stroke-miterlimit:10;}
	.st5{fill:#484848;}
	.st6{fill:#32C1FF;}
	.st7{fill:#989898;}
	.st8{fill:#BE0215;}
	.st9{fill:#00C9FF;}
	.st10{fill:#00B0FF;}
	.st11{fill:none;stroke:#000000;stroke-width:3;stroke-miterlimit:10;}
	.st12{fill:none;stroke:#000000;stroke-width:3;stroke-linecap:round;stroke-linejoin:round;stroke-miterlimit:10;}
	.st13{fill:#D63E4B;}
	.st14{fill:#484848;stroke:#484848;stroke-width:2;stroke-miterlimit:10;}
</style>
<g>
	<path class="st5" d="M16.181,76.993c1.432-3.583,4.17-4.829,7.888-4.653c3.156,0.15,6.339-0.147,9.484,0.091
		c2.26,0.171,4.478,0.896,7.558,1.554c5.563-2.063,9.96-6.505,11.876-13.38c0.866-3.107,2.206-6.079,3.237-9.144
		c0.625-1.858,1.737-2.457,3.624-1.972c4.053,1.041,7.484,2.852,9.536,6.766c0.319,0.609,1.454,1.093,2.225,1.111
		c4.426,0.105,8.861-0.062,13.281,0.123c1.263,0.053,2.72,0.71,3.685,1.552c2.007,1.751,3.745,3.811,5.858,6.02
		c2.149-2.233,3.957-4.33,6.013-6.147c0.899-0.795,2.289-1.376,3.485-1.431c3.867-0.179,7.748-0.032,11.622-0.085
		c2.586-0.035,3.251-0.703,3.257-3.254c0.024-10.834-0.012-21.669,0.031-32.503c0.009-2.186-0.849-3.165-3.088-3.163
		c-27.046,0.028-54.093,0.029-81.139-0.003c-2.279-0.003-3.108,1.101-3.107,3.199c0.009,10.834-0.016,21.668,0.019,32.502
		c0.008,2.462,0.816,3.16,3.347,3.236c0.948,0.028,1.994-0.208,2.816,0.123c0.722,0.291,1.638,1.2,1.647,1.847
		c0.009,0.652-0.937,1.812-1.565,1.885c-1.863,0.216-3.818,0.242-5.659-0.092c-2.627-0.476-4.546-2.893-4.559-5.645
		c-0.053-11.783-0.049-23.567,0.011-35.35c0.016-3.117,2.204-4.681,4.756-5.845c27.668,0,55.336,0.006,83.004,0
		c4.556-0.001,7.657,4.103,7.657,8.496c0,3.75,0,7.5,0,11.25s0,7.5,0,11.25c0,1.944,0,3.889,0,5.833c0,1.451,0.525,4.085,0,5.416
		c-1.428,3.626-4.075,5.201-7.956,4.832c-1.253-0.119-2.55,0.131-3.788-0.051c-5.248-0.771-9.563,0.583-12.652,5.131
		c-0.523,0.77-1.365,1.315-1.99,2.025c-1.502,1.706-2.882,1.531-4.38-0.057c-1.898-2.011-3.88-3.944-5.863-5.871
		c-0.487-0.473-1.116-1.122-1.69-1.133c-4.629-0.092-9.26-0.052-13.68-0.052c-1.086,3.773-2.082,7.233-3.156,10.965
		c1.045,0,1.9,0.001,2.756,0c4.347-0.004,8.694-0.056,13.04,0.002c4.432,0.059,7.44,2.268,8.107,6.126
		c0.296,1.711,0.05,3.516,0.05,5.559c6.371,3.851,6.467,8.692-0.154,14.637c1.78,5.056,0.744,7.769-4.219,11.051
		c1.472,6.091,0.321,8.589-5.247,11.39c-10.917,0-21.835,0-32.752,0c-2.675-0.786-5.342-1.6-8.032-2.329
		c-0.43-0.117-1.027,0.029-1.435,0.255c-1.148,0.635-2.237,1.375-3.349,2.074c-5.221,0-10.443,0-15.664,0
		c-2.332-0.832-3.92-2.409-4.747-4.747C16.181,103.258,16.181,90.126,16.181,76.993z M59.785,53.846
		c-0.805,2.225-1.7,4.25-2.274,6.362c-2.2,8.084-6.685,14.223-14.594,17.511c-1.311,0.545-1.591,1.442-1.584,2.768
		c0.05,9.169,0.026,18.339,0.026,27.509c0,7.051,0.738,7.881,7.867,8.788c0.704,0.09,1.419,0.142,2.128,0.144
		c9.565,0.022,19.129,0.052,28.694,0.03c2.375-0.005,3.979-1.5,3.968-3.48c-0.011-1.999-1.577-3.443-3.975-3.527
		c-2.053-0.072-4.11-0.006-6.165-0.03c-1.324-0.016-2.674-0.156-2.721-1.901c-0.049-1.825,1.213-2.152,2.72-2.143
		c3.399,0.02,6.798,0.03,10.197-0.004c2.599-0.026,4.193-1.366,4.236-3.466c0.046-2.22-1.547-3.554-4.327-3.57
		c-3.478-0.019-6.957,0.046-10.434-0.024c-1.943-0.039-3.131-1.55-2.201-2.871c0.507-0.72,1.822-1.191,2.787-1.216
		c4.74-0.122,9.485-0.077,14.227-0.049c1.76,0.011,3.096-0.601,3.753-2.294c0.923-2.379-0.779-4.635-3.676-4.686
		c-4.9-0.086-9.802-0.018-14.702-0.053c-1.344-0.009-2.632-0.302-2.597-2.041c0.034-1.657,1.166-2.044,2.6-2.032
		c3.162,0.027,6.324,0.031,9.486,0.019c2.979-0.012,4.635-1.297,4.629-3.547c-0.006-2.274-1.613-3.499-4.635-3.503
		c-5.85-0.008-11.699,0.015-17.549-0.011c-2.685-0.012-3.412-1.044-2.575-3.544c0.926-2.767,1.932-5.509,2.793-8.296
		C67.515,59.417,65.418,55.599,59.785,53.846z M30.884,76.677c0,7.95,0.006,15.758-0.008,23.566
		c-0.001,0.863,0.126,1.851-0.243,2.552c-0.33,0.629-1.238,1.247-1.934,1.299c-0.555,0.042-1.395-0.657-1.707-1.242
		c-0.342-0.641-0.293-1.528-0.295-2.308c-0.019-6.719-0.011-13.437-0.011-20.156c0-1.232,0-2.464,0-3.836
		c-1.419,0-2.517,0.054-3.606-0.012c-1.907-0.116-2.746,0.718-2.743,2.638c0.023,11.698,0.022,23.396-0.01,35.095
		c-0.005,1.895,0.775,2.745,2.69,2.718c3.556-0.051,7.114-0.006,10.67-0.013c3.333-0.006,3.643-0.307,3.643-3.665
		c0.001-10.354-0.008-20.709-0.022-31.063C37.301,76.211,37.293,76.211,30.884,76.677z"/>
	<path class="st5" d="M41.305,43.92c1.321-2.477-0.317-4.219-2.17-6.146c-1.933-2.011-0.862-4.996,1.907-5.34
		c2.565-0.319,4.186-1.21,5.302-3.717c1.312-2.949,4.682-2.935,6.003,0.016c1.073,2.398,2.578,3.376,5.074,3.698
		c1.023,0.132,2.459,1.212,2.705,2.129c0.284,1.058-0.157,2.842-0.957,3.553c-1.884,1.676-2.466,3.309-1.85,5.791
		c0.253,1.019-0.451,2.799-1.308,3.421c-0.848,0.615-2.744,0.701-3.644,0.147c-2.171-1.335-3.888-1.189-6.049,0.037
		C43.559,49.075,41.192,47.427,41.305,43.92z M45.247,43.691c2.887-2.199,5.222-2.257,7.787-0.607
		c-1.175-2.989,0.091-4.98,2.574-7.058c-3.469,0.148-5.26-1.29-6.306-4.685c-0.934,3.545-2.892,4.73-6.264,4.797
		C45.868,38.162,46.605,40.333,45.247,43.691z"/>
	<path class="st5" d="M67.854,43.92c1.23-2.418-0.245-4.184-2.143-6.111c-2.059-2.091-0.934-5.118,2.016-5.395
		c2.698-0.253,4.098-1.413,5.189-3.837c1.239-2.754,4.624-2.729,5.9,0.041c1.11,2.408,2.552,3.541,5.228,3.8
		c3.003,0.291,4.057,3.51,1.809,5.566c-1.983,1.814-2.523,3.568-1.96,6.187c0.624,2.902-2.19,4.895-4.819,3.395
		c-2.327-1.328-4.143-1.281-6.453,0.046C70.054,49.087,67.757,47.337,67.854,43.92z M79.407,42.965
		c-0.739-2.804,0.038-4.936,2.841-6.953c-3.64,0.174-5.367-1.342-6.443-4.754c-0.811,3.703-2.956,4.722-6.276,4.93
		c2.885,1.947,3.555,4.128,2.718,7.025C74.671,41.326,76.942,41.512,79.407,42.965z"/>
	<path class="st5" d="M94.371,43.91c0.996-2.261,0.06-4.08-2.008-5.946c-2.24-2.022-1.08-5.185,1.951-5.569
		c2.478-0.314,4.126-1.143,5.099-3.632c0.374-0.956,2.015-1.971,3.062-1.953c1.039,0.018,2.555,1.085,2.982,2.073
		c1.004,2.324,2.547,3.201,4.95,3.542c1.081,0.153,2.47,1.279,2.85,2.291c0.337,0.896-0.173,2.672-0.936,3.312
		c-2.1,1.762-2.46,3.618-1.865,6.207c0.631,2.744-2.149,4.804-4.655,3.413c-2.371-1.317-4.25-1.44-6.671-0.042
		C96.561,49.088,94.221,47.277,94.371,43.91z M96.557,36.356c2.809,1.706,2.76,4.127,2.298,6.064c2.4,0,4.685,0,6.598,0
		c0.61-1.883,1.319-4.076,2.044-6.315c-2.224,0.013-4.152-1.362-5.129-4.673C101.43,34.774,99.582,36.121,96.557,36.356z"/>
</g>
</svg>
