<?xml version="1.0" encoding="utf-8"?>
<!-- Generator: Adobe Illustrator 22.0.0, SVG Export Plug-In . SVG Version: 6.00 Build 0)  -->
<svg version="1.1" id="Layer_1" xmlns="http://www.w3.org/2000/svg" xmlns:xlink="http://www.w3.org/1999/xlink" x="0px" y="0px"
	 width="47.224px" height="47.22px" viewBox="0 0 47.224 47.22" style="enable-background:new 0 0 47.224 47.22;"
	 xml:space="preserve">
<style type="text/css">
	.st0{filter:url(#Adobe_OpacityMaskFilter);}
	.st1{fill:#F2F2F2;}
	.st2{fill:#FFFFFF;}
	.st3{fill:#666666;}
	.st4{fill:#4D4D4D;}
	.st5{fill:#50B848;}
	.st6{fill:none;stroke:#000000;stroke-miterlimit:10;}
	.st7{fill:none;stroke:#808080;stroke-width:2;stroke-miterlimit:10;}
	.st8{fill:none;stroke:#666666;stroke-miterlimit:10;}
	.st9{fill:#D4145A;}
	.st10{fill:#B3B3B3;}
	.st11{fill:none;stroke:#50B848;stroke-width:2;stroke-miterlimit:10;}
	.st12{fill:#E37166;}
	.st13{fill:#627AAD;}
	.st14{fill:#4AB4F5;}
	.st15{fill:#2D2A2B;}
	.st16{fill:none;stroke:#50B848;stroke-miterlimit:10;}
	.st17{fill:none;stroke:#000000;stroke-width:0.25;stroke-miterlimit:10;}
	.st18{opacity:0.62;}
	.st19{fill:none;}
	.st20{clip-path:url(#SVGID_53_);fill:#F2F2F2;}
	.st21{clip-path:url(#SVGID_53_);}
	.st22{clip-path:url(#SVGID_53_);fill:#FFFFFF;}
	.st23{fill:none;stroke:#50B848;stroke-width:3;stroke-miterlimit:10;}
</style>
<g>
	<path class="st3" d="M29.503,32.298c-7.477,5.729-17.637,3.996-22.952-2.732c-5.166-6.541-4.645-15.861,1.24-21.774
		c5.857-5.883,15.189-6.41,21.77-1.242c6.607,5.188,8.562,15.305,2.743,22.95c0.153,0.161,0.308,0.33,0.47,0.493
		c3.597,3.599,7.195,7.196,10.793,10.794c0.677,0.678,0.819,1.298,0.478,2.065c-0.364,0.817-1.286,1.49-2.057,1.35
		c-0.423-0.077-0.873-0.343-1.185-0.651c-3.616-3.58-7.207-7.184-10.806-10.782C29.835,32.606,29.664,32.451,29.503,32.298z
		 M19.389,6.915C12.476,6.906,6.898,12.492,6.9,19.421c0.002,6.788,5.608,12.409,12.392,12.426
		c6.932,0.017,12.521-5.537,12.538-12.458C31.847,12.495,26.29,6.923,19.389,6.915z"/>
</g>
</svg>
