<?xml version="1.0" encoding="utf-8"?>
<!-- Generator: Adobe Illustrator 22.0.0, SVG Export Plug-In . SVG Version: 6.00 Build 0)  -->
<svg version="1.1" id="Layer_1" xmlns="http://www.w3.org/2000/svg" xmlns:xlink="http://www.w3.org/1999/xlink" x="0px" y="0px"
	 width="111.498px" height="96.263px" viewBox="0 0 111.498 96.263" style="enable-background:new 0 0 111.498 96.263;"
	 xml:space="preserve">
<style type="text/css">
	.st0{fill:#FFFFFF;}
	.st1{fill:#E6E6E6;}
	.st2{fill:none;stroke:#B3B3B3;stroke-width:2;stroke-miterlimit:10;}
	.st3{fill:#FFFFFF;stroke:#999999;stroke-miterlimit:10;}
	.st4{fill:none;stroke:#999999;stroke-miterlimit:10;}
	.st5{fill:#FFFFFF;stroke:#32C2FF;stroke-width:10;stroke-miterlimit:10;}
	.st6{fill:#484848;}
	.st7{fill:#32C2FF;}
	.st8{fill:#999999;}
	.st9{fill:#BF0215;}
	.st10{fill:#00CAFF;}
	.st11{fill:#00B1FF;}
	.st12{fill:none;stroke:#000000;stroke-width:3;stroke-miterlimit:10;}
	.st13{fill:none;stroke:#000000;stroke-width:3;stroke-linecap:round;stroke-linejoin:round;stroke-miterlimit:10;}
</style>
<g>
	<g>
		<path class="st0" d="M47.996,7.318c2.397,0.568,4.859,0.942,7.18,1.733c20.847,7.107,28.251,32.36,14.6,49.638
			c-0.33,0.418-0.658,0.839-1.172,1.496C76.58,68.12,84.52,76.019,92.756,84.211c-1.585,1.496-3.062,3.006-4.695,4.321
			c-0.288,0.232-1.417-0.16-1.844-0.581c-7.2-7.122-14.355-14.288-21.498-21.466c-0.508-0.51-0.847-1.188-1.238-1.751
			c-5.056,3.342-10.099,5.151-15.652,5.728c-15.51,1.61-30.605-9.468-33.694-24.857c-0.247-1.233-0.482-2.468-0.723-3.702
			c0-1.942,0-3.883,0-5.825c0.096-0.278,0.239-0.549,0.28-0.834c1.85-12.83,8.897-21.525,20.97-26.088
			c2.393-0.904,5-1.24,7.509-1.837C44.113,7.318,46.054,7.318,47.996,7.318z M45.063,12.581C30.498,12.607,18.688,24.431,18.675,39
			c-0.013,14.493,11.917,26.376,26.461,26.358c14.49-0.017,26.366-11.984,26.316-26.518C71.402,24.411,59.488,12.556,45.063,12.581z
			"/>
	</g>
</g>
</svg>
