<?xml version="1.0" encoding="utf-8"?>
<!-- Generator: Adobe Illustrator 22.0.0, SVG Export Plug-In . SVG Version: 6.00 Build 0)  -->
<svg version="1.1" id="Layer_1" xmlns="http://www.w3.org/2000/svg" xmlns:xlink="http://www.w3.org/1999/xlink" x="0px" y="0px"
	 width="101.667px" height="73.046px" viewBox="0 0 101.667 73.046" style="enable-background:new 0 0 101.667 73.046;"
	 xml:space="preserve">
<style type="text/css">
	.st0{fill:#E6E6E6;}
	.st1{fill:#FFFFFF;}
	.st2{fill:#32C2FF;}
	.st3{fill:#484848;}
	.st4{fill:#FFFFFF;stroke:#999999;stroke-miterlimit:10;}
	.st5{fill:#97A7B3;}
	.st6{fill:url(#SVGID_1_);}
	.st7{fill:url(#SVGID_2_);}
	.st8{fill:#BF0215;}
	.st9{fill:url(#SVGID_3_);}
	.st10{fill:url(#SVGID_4_);}
	.st11{fill:url(#SVGID_5_);}
	.st12{fill:#D0D8D9;}
	.st13{fill:#FCC083;}
	.st14{opacity:0.34;fill:#E8974F;}
	.st15{fill:#EDE7C4;}
	.st16{fill:#44657E;}
	.st17{fill:#F7931E;}
	.st18{fill:#845B56;}
	.st19{fill:#999345;}
	.st20{opacity:0.75;fill:#EBD5B8;}
	.st21{fill:#CFD6BD;}
	.st22{fill:#FF0000;}
	.st23{fill:#F9F9F9;}
	.st24{fill:#F3F3F3;}
	.st25{fill:none;stroke:#FFFFFF;stroke-miterlimit:10;}
	.st26{fill:#FFFFFF;stroke:#FFFFFF;stroke-miterlimit:10;}
	.st27{fill:url(#SVGID_6_);}
	.st28{fill:url(#SVGID_7_);}
	.st29{fill:none;stroke:#484848;stroke-width:0.5;stroke-miterlimit:10;}
	.st30{fill:url(#SVGID_20_);}
	.st31{fill:url(#SVGID_21_);}
	.st32{fill:none;stroke:#000000;stroke-miterlimit:10;}
	.st33{fill:none;stroke:#999999;stroke-miterlimit:10;}
	.st34{fill:#999999;}
	.st35{fill:#FFFFFF;stroke:#000000;stroke-miterlimit:10;}
	.st36{fill:#494949;}
	.st37{fill:none;stroke:#CCCCCC;stroke-miterlimit:10;}
</style>
<g>
	<g>
		<path class="st36" d="M3,5.936c1.223-2.958,3.489-3.797,6.585-3.78c17.543,0.094,35.086,0.041,52.63,0.046
			c4.046,0.001,5.75,1.753,5.754,5.853c0.003,2.9,0.015,5.8,0.03,8.7c0.001,0.134,0.065,0.269,0.187,0.743c0.654,0,1.396,0,2.139,0
			c5.376,0.001,10.753,0.036,16.128-0.01c2.536-0.022,4.293,1,5.414,3.301c2.224,4.565,4.528,9.092,6.799,13.634
			c0,8.362,0,16.724,0,25.086c-1.205,2.805-3.312,4.139-6.361,3.734c-1.444-0.192-1.724,0.723-2.15,1.735
			c-2.27,5.397-8.382,7.484-13.425,4.638c-2.479-1.399-3.818-3.663-4.653-6.232c-14.28,0-28.416,0-42.508,0
			c-1.732,4.774-4.666,7.409-8.877,7.484c-5.175,0.091-8.377-2.775-9.935-7.697C7.278,63.686,4.416,63.036,3,59.509
			C3,41.651,3,23.794,3,5.936z M64.02,59.604c0.159-0.429,0.248-0.557,0.248-0.685c0.019-17.14,0.027-34.28,0.057-51.421
			c0.002-1.358-0.709-1.641-1.884-1.64C44.52,5.873,26.6,5.879,8.68,5.844C7.191,5.841,6.702,6.396,6.705,7.845
			c0.034,16.574,0.012,33.149,0.084,49.723c0.003,0.676,0.767,1.894,1.221,1.915c1.132,0.053,2.608,0.897,3.314-1.135
			c1.428-4.109,4.539-6.234,8.857-6.374c3.974-0.129,7.403,2.277,8.91,6.305c0.469,1.254,1.138,1.338,2.193,1.335
			c7.224-0.024,14.449-0.011,21.673-0.011C56.632,59.604,60.306,59.604,64.02,59.604z M68.067,59.437
			c3.733,0.408,3.807,0.392,4.474-1.221c1.623-3.923,4.542-6.087,8.787-6.234c4.003-0.139,7.428,2.18,8.936,6.242
			c0.76,2.048,2.257,1.435,3.459,1.247c0.509-0.08,1.134-1.415,1.166-2.201c0.13-3.254-0.208-6.541,0.102-9.771
			c0.813-8.45-0.694-16.271-5.532-23.347c-0.276-0.404-0.474-0.875-0.641-1.339c-0.481-1.332-1.399-1.71-2.795-1.689
			c-5.313,0.079-10.628,0.032-15.942,0.042c-0.673,0.001-1.346,0.056-2.014,0.086C68.067,34.121,68.067,46.714,68.067,59.437z
			 M26.026,61.47c0.015-3.273-2.478-5.831-5.707-5.857c-3.372-0.028-5.929,2.506-5.918,5.864c0.011,3.21,2.581,5.756,5.821,5.766
			C23.465,67.253,26.011,64.72,26.026,61.47z M87.268,61.491c0.029-3.247-2.475-5.832-5.698-5.882
			c-3.364-0.051-5.949,2.494-5.937,5.847c0.012,3.24,2.55,5.777,5.792,5.788C84.654,67.255,87.239,64.709,87.268,61.491z"/>
		<path class="st36" d="M19.136,28.388c0.923-0.824,1.744-1.556,2.849-2.542c2.451,2.622,4.993,5.343,7.698,8.238
			c6.002-6.132,11.765-12.02,17.723-18.107c1.071,1.138,1.828,1.942,2.774,2.948c-4.551,4.496-9.019,8.905-13.482,13.32
			c-1.759,1.741-3.505,3.495-5.261,5.24c-0.931,0.925-1.978,1.194-2.981,0.21C25.336,34.628,22.261,31.514,19.136,28.388z"/>
		<path class="st36" d="M81.399,40.285c-2.332,0-4.665-0.028-6.997,0.009c-1.707,0.027-2.444-0.804-2.436-2.457
			c0.016-3.463,0.018-6.927,0.008-10.39c-0.005-1.609,0.83-2.298,2.374-2.294c2.827,0.007,5.661-0.103,8.478,0.068
			c0.808,0.049,1.909,0.709,2.292,1.408c1.93,3.523,3.699,7.136,5.456,10.751c0.805,1.656-0.002,2.835-1.965,2.889
			C86.206,40.335,83.802,40.285,81.399,40.285z M75.715,36.525c3.474,0,6.757,0,10.371,0c-1.235-2.478-2.33-4.747-3.508-6.971
			c-0.185-0.349-0.743-0.687-1.141-0.703c-1.879-0.073-3.762-0.033-5.722-0.033C75.715,31.51,75.715,33.898,75.715,36.525z"/>
	</g>
</g>
</svg>
