<?xml version="1.0" encoding="utf-8"?>
<!-- Generator: Adobe Illustrator 22.0.0, SVG Export Plug-In . SVG Version: 6.00 Build 0)  -->
<svg version="1.1" id="Layer_1" xmlns="http://www.w3.org/2000/svg" xmlns:xlink="http://www.w3.org/1999/xlink" x="0px" y="0px"
	 width="74.057px" height="74.001px" viewBox="0 0 74.057 74.001" style="enable-background:new 0 0 74.057 74.001;"
	 xml:space="preserve">
<style type="text/css">
	.st0{fill:#E6E6E6;}
	.st1{fill:#FFFFFF;}
	.st2{fill:#32C2FF;}
	.st3{fill:#484848;}
	.st4{fill:#FFFFFF;stroke:#999999;stroke-miterlimit:10;}
	.st5{fill:#97A7B3;}
	.st6{fill:url(#SVGID_1_);}
	.st7{fill:url(#SVGID_2_);}
	.st8{fill:#BF0215;}
	.st9{fill:url(#SVGID_3_);}
	.st10{fill:url(#SVGID_4_);}
	.st11{fill:url(#SVGID_5_);}
	.st12{fill:#D0D8D9;}
	.st13{fill:#FCC083;}
	.st14{opacity:0.34;fill:#E8974F;}
	.st15{fill:#EDE7C4;}
	.st16{fill:#44657E;}
	.st17{fill:#F7931E;}
	.st18{fill:#845B56;}
	.st19{fill:#999345;}
	.st20{opacity:0.75;fill:#EBD5B8;}
	.st21{fill:#CFD6BD;}
	.st22{fill:#FF0000;}
	.st23{fill:#F9F9F9;}
	.st24{fill:#F3F3F3;}
	.st25{fill:none;stroke:#FFFFFF;stroke-miterlimit:10;}
	.st26{fill:#FFFFFF;stroke:#FFFFFF;stroke-miterlimit:10;}
	.st27{fill:url(#SVGID_6_);}
	.st28{fill:url(#SVGID_7_);}
	.st29{fill:none;stroke:#484848;stroke-width:0.5;stroke-miterlimit:10;}
	.st30{fill:url(#SVGID_20_);}
	.st31{fill:url(#SVGID_21_);}
	.st32{fill:none;stroke:#000000;stroke-miterlimit:10;}
	.st33{fill:none;stroke:#999999;stroke-miterlimit:10;}
	.st34{fill:#999999;}
	.st35{fill:#FFFFFF;stroke:#000000;stroke-miterlimit:10;}
	.st36{fill:#494949;}
	.st37{fill:none;stroke:#CCCCCC;stroke-miterlimit:10;}
</style>
<g>
	<g>
		<path class="st36" d="M68.482,71.503c-21.013,0-41.927,0-62.924,0c0-0.334,0-0.626,0-0.919c0-14.032-0.003-28.064,0.009-42.097
			c0.001-0.608-0.141-1.041-0.61-1.49c-1.52-1.454-2.355-3.265-2.425-5.385c-0.041-1.247-0.039-2.497-0.016-3.744
			c0.005-0.307,0.112-0.64,0.262-0.911c2.556-4.628,5.133-9.245,7.684-13.876c0.239-0.433,0.501-0.584,0.991-0.584
			C28.507,2.511,45.56,2.51,62.614,2.5c0.452,0,0.714,0.128,0.941,0.539c2.552,4.631,5.126,9.249,7.69,13.873
			c0.108,0.194,0.266,0.406,0.264,0.608c-0.026,2.039,0.267,4.099-0.34,6.102c-0.406,1.339-1.108,2.52-2.153,3.45
			c-0.423,0.377-0.543,0.759-0.542,1.292c0.011,14.057,0.009,28.115,0.009,42.172C68.482,70.832,68.482,71.128,68.482,71.503z
			 M65.353,68.444c0-13.117,0-26.189,0-39.301c-3.494,0.678-6.312-0.417-8.554-3.154c-1.716,2.195-3.909,3.365-6.62,3.359
			c-2.705-0.006-4.874-1.223-6.569-3.367c-1.734,2.213-3.931,3.379-6.643,3.368c-2.701-0.011-4.868-1.234-6.559-3.367
			c-1.722,2.197-3.894,3.362-6.579,3.365c-2.709,0.003-4.893-1.188-6.594-3.353c-2.255,2.742-5.073,3.834-8.543,3.149
			c0,13.136,0,26.206,0,39.283c1.531,0,3.011,0,4.557,0c0-10.991,0-21.919,0-32.884c5.898,0,11.727,0,17.642,0
			c0,10.987,0,21.934,0,32.902C42.424,68.444,53.873,68.444,65.353,68.444z M27.769,68.451c0-9.979,0-19.901,0-29.854
			c-3.829,0-7.608,0-11.409,0c0,9.972,0,19.895,0,29.854C20.164,68.451,23.925,68.451,27.769,68.451z M41.896,16.294
			c-0.398-3.61-0.787-7.141-1.176-10.676c-2.502,0-4.931,0-7.397,0c-0.394,3.577-0.782,7.103-1.176,10.676
			C35.438,16.294,38.597,16.294,41.896,16.294z M19.367,16.29c3.295,0,6.454,0,9.68,0c0.396-3.565,0.789-7.099,1.182-10.634
			c-0.106-0.036-0.174-0.081-0.243-0.081c-2.219-0.006-4.439-0.021-6.658,0.013c-0.192,0.003-0.474,0.3-0.552,0.519
			c-0.525,1.477-1.007,2.97-1.502,4.457C20.647,12.448,20.019,14.332,19.367,16.29z M51.13,5.651c-2.48,0-4.891,0-7.323,0
			c0.401,3.599,0.793,7.109,1.185,10.628c3.245,0,6.418,0,9.677,0C53.468,12.67,52.29,9.134,51.13,5.651z M19.699,5.563
			c-2.239,0-4.333,0.016-6.428-0.012c-0.488-0.006-0.752,0.142-0.989,0.577c-1.747,3.193-3.523,6.369-5.288,9.552
			c-0.101,0.182-0.174,0.38-0.295,0.648c3.082,0,6.049,0.01,9.015-0.023c0.196-0.002,0.488-0.295,0.566-0.513
			c0.501-1.408,0.953-2.833,1.425-4.252C18.356,9.583,19.01,7.627,19.699,5.563z M54.437,5.565c0,0.14-0.019,0.22,0.003,0.285
			c1.115,3.356,2.225,6.714,3.376,10.058c0.068,0.198,0.466,0.398,0.713,0.402c2.32,0.03,4.64,0.018,6.961,0.018
			c0.587,0,1.174,0,1.79,0c-0.027-0.164-0.021-0.243-0.053-0.301c-1.87-3.38-3.741-6.759-5.625-10.131
			c-0.081-0.146-0.286-0.316-0.435-0.317C58.927,5.559,56.688,5.565,54.437,5.565z M45.194,19.408
			c-0.257,2.562,0.122,4.814,2.492,6.178c1.851,1.066,3.746,0.965,5.494-0.283c2.045-1.46,2.296-3.579,2.046-5.896
			C51.87,19.408,48.561,19.408,45.194,19.408z M31.994,19.415c-0.251,2.631,0.158,4.922,2.646,6.25
			c1.92,1.024,3.815,0.821,5.542-0.503c1.626-1.247,2.362-3.693,1.786-5.747C38.663,19.415,35.354,19.415,31.994,19.415z
			 M18.814,19.412c-0.345,3.02,0.492,5.111,2.538,6.213c1.885,1.016,3.754,0.894,5.494-0.358c1.718-1.235,2.485-3.626,1.931-5.855
			C25.479,19.412,22.17,19.412,18.814,19.412z M5.611,19.409c-0.261,2.588,0.141,4.831,2.547,6.223
			c1.742,1.007,3.969,0.831,5.558-0.408c1.928-1.503,2.154-3.56,1.923-5.815C12.279,19.409,8.971,19.409,5.611,19.409z
			 M58.394,19.414c-0.262,2.574,0.128,4.823,2.502,6.18c1.883,1.076,3.799,0.95,5.553-0.339c1.996-1.467,2.213-3.571,1.972-5.84
			C65.063,19.414,61.755,19.414,58.394,19.414z"/>
		<path class="st36" d="M34.777,35.535c8.685,0,17.313,0,25.992,0c0,7.635,0,15.236,0,22.9c-8.656,0-17.299,0-25.992,0
			C34.777,50.821,34.777,43.22,34.777,35.535z M37.821,55.395c6.647,0,13.246,0,19.841,0c0-5.63,0-11.208,0-16.805
			c-6.639,0-13.22,0-19.841,0C37.821,44.191,37.821,49.751,37.821,55.395z"/>
	</g>
</g>
</svg>
